<svg width="13" height="13" viewBox="0 0 13 13" xmlns="http://www.w3.org/2000/svg" xmlns:xlink="http://www.w3.org/1999/xlink"><title>GitHub</title><defs><path id="a" d="M0 0v12.908h12.834V0z"/></defs><g fill="none" fill-rule="evenodd"><mask id="b" fill="#fff"><use xlink:href="#a"/></mask><path d="M6.417 0C2.873 0 0 2.963 0 6.618c0 2.924 1.838 5.404 4.389 6.28.32.06.438-.145.438-.32 0-.157-.006-.573-.009-1.125-1.785.4-2.161-.888-2.161-.888-.292-.764-.713-.967-.713-.967-.583-.411.044-.403.044-.403.644.047.983.682.983.682.572 1.011 1.502.72 1.868.55.058-.428.223-.72.407-.885-1.425-.167-2.923-.735-2.923-3.27 0-.723.25-1.313.66-1.776-.066-.167-.286-.84.063-1.751 0 0 .54-.178 1.765.678A5.972 5.972 0 0 1 6.418 3.2a5.98 5.98 0 0 1 1.606.223c1.225-.856 1.763-.678 1.763-.678.35.91.13 1.584.064 1.751.411.463.66 1.053.66 1.776 0 2.542-1.501 3.101-2.93 3.265.23.204.435.608.435 1.226 0 .884-.008 1.598-.008 1.815 0 .177.116.383.441.318 2.548-.877 4.385-3.355 4.385-6.278C12.834 2.963 9.961 0 6.417 0" fill="#6772E5" mask="url(#b)"/></g></svg>