<?xml version="1.0" standalone="no"?>
<!DOCTYPE svg PUBLIC "-//W3C//DTD SVG 20010904//EN"
 "https://www.w3.org/TR/2001/REC-SVG-20010904/DTD/svg10.dtd">
<svg version="1.0" xmlns="http://www.w3.org/2000/svg"
 width="16.000000pt" height="16.000000pt" viewBox="0 0 16.000000 16.000000"
 preserveAspectRatio="xMidYMid meet">
<metadata>
Created by potrace 1.11, written by Peter Selinger 2001-2013
</metadata>
<g transform="translate(0.000000,16.000000) scale(0.002000,-0.002000)"
fill="#000000" stroke="none">
<path d="M3740 7613 c-374 -36 -591 -80 -885 -178 -786 -261 -1460 -789 -1911
-1498 -206 -324 -370 -709 -459 -1082 -72 -298 -99 -533 -99 -855 0 -322 27
-557 99 -855 312 -1303 1354 -2348 2655 -2664 271 -65 474 -91 785 -98 457
-10 847 49 1255 189 1162 401 2040 1356 2340 2547 73 289 104 553 104 881 0
257 -10 383 -49 616 -121 721 -475 1409 -996 1933 -603 607 -1379 975 -2228
1056 -137 13 -510 18 -611 8z m2612 -2029 c150 -19 316 -60 429 -105 70 -28
83 -38 81 -54 -3 -18 -137 -512 -147 -542 -3 -9 -17 -7 -52 8 -93 41 -219 80
-328 101 -148 29 -382 31 -470 4 -177 -54 -259 -143 -259 -281 0 -81 15 -118
78 -183 70 -74 208 -143 541 -272 401 -154 635 -361 727 -642 27 -80 31 -112
36 -232 3 -90 0 -164 -8 -209 -76 -424 -411 -705 -940 -789 -126 -19 -516 -17
-649 5 -185 30 -400 91 -502 143 l-47 23 22 93 c89 376 121 489 136 484 8 -2
65 -25 125 -50 213 -88 423 -130 645 -130 197 1 311 33 404 115 77 67 112 197
82 301 -41 142 -167 229 -526 363 -405 151 -645 329 -768 572 -12 23 -34 81
-48 130 -36 119 -38 315 -5 438 96 362 398 614 828 694 148 28 148 28 330 30
98 0 209 -5 285 -15z m-4492 -1599 l0 -1565 -355 0 -355 0 0 1565 0 1565 355
0 355 0 0 -1565z m2778 1268 l-3 -298 -427 -3 -428 -2 0 -1265 0 -1265 -355 0
-355 0 0 1265 0 1265 -420 0 -420 0 0 300 0 300 1205 0 1205 0 -2 -297z"/>
</g>
</svg>
