<svg xmlns="http://www.w3.org/2000/svg" width="537" height="210" viewBox="0 0 537 210"><title>flagIcons</title><path d="M12.006,10A2,2,0,0,0,10,11.992V23.008A1.992,1.992,0,0,0,11.992,25H17V10Z" style="fill:#43458b"/><path d="M24,10V25h4.994A2,2,0,0,0,31,23.008V11.992A1.992,1.992,0,0,0,29.008,10H24Z" style="fill:#e25950"/><path d="M17,10h7V25H17Z" style="fill:#fcd669"/><path d="M18,18v.5A2.5,2.5,0,0,0,20.5,21V18Zm2.5-3H23v3H20.5Z" style="fill:#e25950"/><path d="M18,15h2.5v3H18Zm2.5,6A2.5,2.5,0,0,0,23,18.5V18H20.5Z" style="fill:#f6f9fc"/><path d="M43.005,10A2,2,0,0,0,41,11.992V23.008A2,2,0,0,0,43,25h3V10Z" style="fill:#e25950"/><path d="M46,10v5H62V12.005A2,2,0,0,0,60.006,10Z" style="fill:#24b47e"/><path d="M46,15H62v5H46Z" style="fill:#f6f9fc"/><path d="M46,20v5H60.006A2,2,0,0,0,62,23V20Z" style="fill:#333"/><path d="M61,15h1v5H61Z" style="fill:#eaeef3"/><path d="M93,12a2,2,0,0,0-2-2H74a2,2,0,0,0-2,2v3H93Z"/><path d="M74.491,10A2.49,2.49,0,0,0,72,12.489V15H93V12.5A2.5,2.5,0,0,0,90.509,10Z"/><path d="M72,15H93v5H72Z" style="fill:#45b2e8"/><path d="M72,19v3a3,3,0,0,0,3,3H90a3,3,0,0,0,3-3V19Z" style="fill:#f6f9fc"/><path d="M79.035,15a3.5,3.5,0,0,1,6.93,0Z" style="fill:#fcd669"/><path d="M91.19,15l-8.418,9.16a1,1,0,0,1-1.5-.036L73.645,15,72,13.03V23a2,2,0,0,0,2,2H91a2,2,0,0,0,2-2V13.03Z" style="fill:#e25950"/><path d="M105,10a2,2,0,0,0-2,2v3h21V12.005A2.006,2.006,0,0,0,122,10Z" style="fill:#e25950"/><path d="M103,15h21v5H103Z" style="fill:#555abf"/><path d="M103,20v2.995A2.006,2.006,0,0,0,105,25h17.01a2,2,0,0,0,2-2V20Z" style="fill:#fcd669"/><path d="M135.995,10a2,2,0,0,0-2,2v3h21V12.005A2.006,2.006,0,0,0,153.005,10Z" style="fill:#45b2e8"/><path d="M134,15h21v5H134Z" style="fill:#f6f9fc"/><path d="M134,15h1v5h-1Zm20,0h1v5h-1Z" style="fill:#eaeef3"/><path d="M134,20v2.995A2.006,2.006,0,0,0,135.995,25H153a2,2,0,0,0,2-2V20Z" style="fill:#45b2e8"/><circle cx="144.5" cy="17.5" r="1.5" style="fill:#f4b32e"/><path d="M166.995,10a2,2,0,0,0-2,2v3h21V12.005A2.006,2.006,0,0,0,184.005,10Z" style="fill:#e25950"/><path d="M165,15h21v5H165Z" style="fill:#f6f9fc"/><path d="M165,15h1v5h-1Zm20,0h1v5h-1Z" style="fill:#eaeef3"/><path d="M165,20v2.995A2.006,2.006,0,0,0,166.995,25H184a2,2,0,0,0,2-2V20Z" style="fill:#e25950"/><path d="M198,10h17a2,2,0,0,1,2,2V23a2,2,0,0,1-2,2H198a2,2,0,0,1-2-2V12A2,2,0,0,1,198,10Z" style="fill:#43458b"/><path d="M196,15.664l3.5-2.4h0l5.425,3.722h-1.767l-3.659-2.51-3.5,2.4Zm9-5.569v1.213l-3.5,2.4h0l-4.758-3.264A1.983,1.983,0,0,1,197.862,10l3.638,2.5Z" style="fill:#f6f9fc"/><path d="M204.909,17l-3.659-2.51L197.591,17H196v-.121l5.248-3.6h0L205,15.85V17Zm-5.158-3.278h0l-3.6-2.47a1.99,1.99,0,0,1,.6-.8l3,2.059L203.409,10H205v.121Z" style="fill:#e25950"/><path d="M205,14.625h-3.375V17h-2.25V14.625H196v-2.25h3.375V10h2.25v2.375H205Z" style="fill:#f6f9fc"/><path d="M205,14h-4v3h-1V14h-4V13h4V10h1v3h4Z" style="fill:#e25950"/><path d="M213.24,16.5a.75.75,0,1,1,.75-.75.75.75,0,0,1-.75.75Zm-1.25,3a.5.5,0,1,1,.5-.5A.5.5,0,0,1,211.99,19.5Zm-1.25-5a.75.75,0,1,1,.75-.75.75.75,0,0,1-.75.75Zm-3,3a.75.75,0,1,1,.75-.75A.75.75,0,0,1,207.74,17.5Zm3,4a.75.75,0,1,1-.75.75A.75.75,0,0,1,210.74,21.5Zm-10.75,1.023-.684.653a.179.179,0,0,1-.3-.149l.068-.959-.922-.146a.186.186,0,0,1-.074-.334l.77-.544-.465-.834a.182.182,0,0,1,.207-.268l.892.282.343-.9a.176.176,0,0,1,.332,0l.343.9.892-.282a.182.182,0,0,1,.207.268l-.465.834.77.544a.186.186,0,0,1-.074.334l-.922.146.068.959a.179.179,0,0,1-.3.149Z" style="fill:#f6f9fc"/><path d="M233,10h9V25h-9Z" style="fill:#fcd669"/><path d="M229,10h5V25h-5a2,2,0,0,1-2-2V12A2,2,0,0,1,229,10Z" style="fill:#333"/><path d="M246,25h-5V10h5a2,2,0,0,1,2,2V23A2,2,0,0,1,246,25Z" style="fill:#e25950"/><path d="M259.995,10A1.991,1.991,0,0,0,258,11.987V18h21V12a2,2,0,0,0-1.995-2Z" style="fill:#e25950"/><path d="M258,18v4.994A2.006,2.006,0,0,0,259.995,25h17.01a1.993,1.993,0,0,0,2-1.991c0-.005,0-.01,0-.015V18Z" style="fill:#24b47e"/><path d="M268.5,19.55l-2.645,1.591.7-2.946-2.34-2.186,2.957-.129L268.5,13l1.323,2.88,2.957.129L270.44,18.2l.7,2.946Z" style="fill:#fcd669"/><path d="M290.995,10A2,2,0,0,0,289,12v4h21V12a2,2,0,0,0-1.995-2Z" style="fill:#f6f9fc"/><path d="M289.5,15.5h20V12a1.5,1.5,0,0,0-1.495-1.5h-17.01A1.5,1.5,0,0,0,289.5,12Z" style="fill:none;stroke:#eaeef3"/><path d="M289,15h21v5H289Z" style="fill:#24b47e"/><path d="M289,20v2.995A2.006,2.006,0,0,0,290.995,25h17.01A2,2,0,0,0,310,23V20Z" style="fill:#e25950"/><path d="M321.995,10A2,2,0,0,0,320,12v3h21V12.005A2.006,2.006,0,0,0,339.005,10Z" style="fill:#e25950"/><path d="M320,15h21v5H320Z" style="fill:#fcd669"/><path d="M320,20v2.995A2.006,2.006,0,0,0,321.995,25h17.01A2,2,0,0,0,341,23V20Z" style="fill:#24b47e"/><path d="M320,15h1v5h-1Zm20,0h1v5h-1Z" style="fill:#efc65e"/><path d="M353,10h17a2,2,0,0,1,2,2V23a2,2,0,0,1-2,2H353a2,2,0,0,1-2-2V12A2,2,0,0,1,353,10Z" style="fill:#24b47e"/><path d="M362,12l9,6-9,6-9-6Z" style="fill:#fcd669"/><path d="M358.051,16.993a3.476,3.476,0,0,0,5.715,3.155,8.588,8.588,0,0,0-5.716-3.155Zm6.523,2.147A3.484,3.484,0,0,0,358.46,15.8,9.848,9.848,0,0,1,364.574,19.14Z" style="fill:#43458b"/><path d="M358.46,15.8a3.451,3.451,0,0,0-.408,1.195,8.588,8.588,0,0,1,5.714,3.155,3.49,3.49,0,0,0,.808-1.008A9.848,9.848,0,0,0,358.46,15.8Z" style="fill:#fff"/><path d="M387,10h11V25H387Z" style="fill:#f6f9fc"/><path d="M398,11H387V10h11ZM387,24h11v1H387Z" style="fill:#e25950;opacity:0.10000000149011612;isolation:isolate"/><path d="M392.045,20.97l0-1.974-1.4-.008.177-.819L389,17.892l.647-1.2-.58-1.585,1.593.634.471-1.818.7.356L392.5,13l.76,1.264.621-.286.3,1.757,1.773-.557-.545,1.47.6,1.235-1.76.287.161.811-1.442-.014.008,1.985ZM388,25h-4a2,2,0,0,1-2-2V12a2,2,0,0,1,2-2h4Zm13,0h-4V10h4a2,2,0,0,1,2,2V23A2,2,0,0,1,401,25Z" style="fill:#e25950"/><rect x="413" y="10" width="21" height="15" rx="3" ry="3" style="fill:#fcd669"/><path d="M414.992,10A1.99,1.99,0,0,0,413,11.988V20l15-10Z" style="fill:#45b2e8"/><circle cx="416" cy="13" r="1" style="fill:#fcd669"/><path d="M434,23a2,2,0,0,1-1.992,2H419l15-10Z" style="fill:#45b2e8"/><path d="M432,10h-1L413,22v1a2,2,0,0,0,2,2h1l18-12V12A2,2,0,0,0,432,10Z" style="fill:#e25950"/><path d="M463,10h-3L444.607,24.431A1.99,1.99,0,0,0,446,25h3l15.393-14.431A1.99,1.99,0,0,0,463,10Z" style="fill:#fcd669"/><path d="M446,10a2,2,0,0,0-2,2V23a1.991,1.991,0,0,0,.607,1.431L460,10Z" style="fill:#24b47e"/><path d="M449,25h14a2,2,0,0,0,2-2V12a1.991,1.991,0,0,0-.607-1.431Z" style="fill:#e25950"/><path d="M477,10h17a2,2,0,0,1,2,2V23a2,2,0,0,1-2,2H477a2,2,0,0,1-2-2V12A2,2,0,0,1,477,10Z" style="fill:#e25950"/><path d="M490,19h-3v3h-3V19h-3V16h3V13h3v3h3Z" style="fill:#fff"/><path d="M514.5,18.5v-8h10.492A1.5,1.5,0,0,1,526.5,12v6.5Z" style="fill:#f7f7f7"/><path d="M524.991,11A1,1,0,0,1,526,12v6H515V11h9.992m0-1H514v9h13V12a2,2,0,0,0-2.009-2Z" style="fill:#e9ebf0"/><path d="M506,18v4.994A2.006,2.006,0,0,0,507.995,25h17.01a1.993,1.993,0,0,0,2-1.991V18Z" style="fill:#e25950"/><path d="M508,10a1.993,1.993,0,0,0-2,1.989V18h9V10Z" style="fill:#43458b"/><path d="M512.34,13.422l-1.169,0a.162.162,0,0,1-.154-.112l-.362-1.112a.162.162,0,0,0-.31,0l-.36,1.111a.162.162,0,0,1-.155.113h-1.17a.162.162,0,0,0-.1.294l.946.687a.162.162,0,0,1,.058.182L509.21,15.7a.162.162,0,0,0,.25.182l.946-.634a.162.162,0,0,1,.191,0l.946.634a.162.162,0,0,0,.25-.182l-.361-1.111a.162.162,0,0,1,.059-.183l.946-.687a.162.162,0,0,0,.06-.182.165.165,0,0,0-.156-.114Z" style="fill:#fff"/><path d="M12.006,35A2,2,0,0,0,10,36.992V48.008A1.992,1.992,0,0,0,11.992,50H17V35Z" style="fill:#24b47e"/><path d="M24,35V50h4.994A2,2,0,0,0,31,48.008V36.992A1.992,1.992,0,0,0,29.008,35H24Z" style="fill:#fcd669"/><path d="M16,35h9V50H16Z" style="fill:#e25950"/><path d="M23.625,41.3l-2.014.005a.28.28,0,0,1-.267-.194L20.72,39.2a.28.28,0,0,0-.534,0l-.622,1.916a.28.28,0,0,1-.266.194H17.283a.28.28,0,0,0-.165.507L18.748,43a.28.28,0,0,1,.1.314l-.622,1.916a.28.28,0,0,0,.432.314l1.63-1.093a.28.28,0,0,1,.33,0l1.63,1.093a.28.28,0,0,0,.432-.314l-.624-1.916a.28.28,0,0,1,.1-.314l1.63-1.185a.28.28,0,0,0,.1-.313A.284.284,0,0,0,23.625,41.3Z" style="fill:#fcd669"/><rect x="41" y="35" width="21" height="15" rx="2" ry="2" style="fill:#e25950"/><path d="M53.5,38a.5.5,0,1,1-.5.5A.5.5,0,0,1,53.5,38Z" style="fill:#fcd669"/><path d="M54.5,40a.5.5,0,1,1-.5.5A.5.5,0,0,1,54.5,40Z" style="fill:#fcd669"/><path d="M54.5,42a.5.5,0,1,1-.5.5A.5.5,0,0,1,54.5,42Z" style="fill:#fcd669"/><path d="M53.5,44a.5.5,0,1,1-.5.5A.5.5,0,0,1,53.5,44Z" style="fill:#fcd669"/><path d="M47.471,43.588,45.013,45l.609-2.757-1.651-2.068,2.48-.138,1.02-2.137,1.021,2.137,2.479.138L49.32,42.243,50.009,45Z" style="fill:#fcd669"/><path d="M74,35a1.993,1.993,0,0,0-2,1.991q0,.008,0,.015V42H93V37.006A2.006,2.006,0,0,0,91,35Z" style="fill:#fcd669"/><path d="M72,42H93v4H72Z" style="fill:#43458b"/><path d="M72,46v2a2,2,0,0,0,2,2h17.01a1.992,1.992,0,0,0,2-1.989V46Z" style="fill:#e25950"/><path d="M124,38H103V37a2,2,0,0,1,2-2h17a2,2,0,0,1,2,2Z" style="fill:#0172c6"/><path d="M103.02,38h21v2h-21Zm0,7h21v2h-21Z" style="fill:#f9f9f9"/><path d="M103,47h21v1a2,2,0,0,1-2,2H105a2,2,0,0,1-2-2Z" style="fill:#0172c6"/><path d="M103,40h21v5H103Z" style="fill:#e25950"/><path d="M107.52,40a2.5,2.5,0,1,0,.02,0Zm0,4A1.5,1.5,0,1,1,109,42.481q0,.03,0,.059A1.5,1.5,0,0,1,107.52,44Z" style="fill:#f9f9f9"/><circle cx="107.52" cy="42.54" r="1.5" style="fill:#0172c6"/><path d="M154,42V37a1,1,0,0,0-1-1H136a.981.981,0,0,0-.325.066L145,42Zm-19.335,7.48a1.991,1.991,0,0,0,.6.375,2,2,0,0,1-.6-.375Z" style="fill:#f6f9fc"/><path d="M134.665,49.48a1.991,1.991,0,0,0,.6.375,2,2,0,0,1-.6-.375Z" style="fill:#8898aa;opacity:0.20000000298023224;isolation:isolate"/><path d="M153,35H136a1.982,1.982,0,0,0-1.29.484.788.788,0,0,1,.135.054l.83.528A.981.981,0,0,1,136,36h17a1,1,0,0,1,1,1v5h1V37A2,2,0,0,0,153,35Z" style="fill:#f6f9fc"/><path d="M153,35H136a1.982,1.982,0,0,0-1.29.484.788.788,0,0,1,.135.054l.83.528A.981.981,0,0,1,136,36h17a1,1,0,0,1,1,1v5h1V37A2,2,0,0,0,153,35Z" style="fill:#8898aa;opacity:0.20000000298023224;isolation:isolate"/><path d="M135.995,50H136a1.988,1.988,0,0,1-.739-.145A1.966,1.966,0,0,0,135.995,50ZM153,50h.005a1.991,1.991,0,0,0,2-1.987V48A2,2,0,0,1,153,50Z" style="fill:#e25950"/><path d="M154,42h-9l-9.456,6.877-.735.535a.774.774,0,0,1-.143.067A1.982,1.982,0,0,0,136,50h17a2,2,0,0,0,2-2V42Z" style="fill:#e25950"/><path d="M134.04,48.4c-.008-.04-.006-.085-.012-.128.006.043,0,.087.013.128Zm.035.111a1.99,1.99,0,0,0,.59.966A1.994,1.994,0,0,1,134.075,48.514ZM134,48v0a1.955,1.955,0,0,0,.028.273A1.97,1.97,0,0,1,134,48Zm.075.514c-.01-.037-.026-.072-.034-.11C134.049,48.442,134.065,48.477,134.075,48.514Z" style="fill:#43458b"/><path d="M135.675,36.066l-.83-.528a.788.788,0,0,0-.136-.054A1.986,1.986,0,0,0,134,37V48a1.97,1.97,0,0,0,.028.275c.006.043,0,.087.013.128s.024.074.034.111a1.994,1.994,0,0,0,.591.965.774.774,0,0,0,.143-.067l.735-.535L145,42Z" style="fill:#43458b"/><path d="M165,39h21v7H165Z" style="fill:#e25950"/><path d="M165,48V45h21v3a2,2,0,0,1-2,2H167A2,2,0,0,1,165,48Z" style="fill:#fcd669"/><path d="M186,37v3H165V37a2,2,0,0,1,2-2h17A2,2,0,0,1,186,37Z" style="fill:#333"/><path d="M196,42v6a2,2,0,0,0,1.995,2H215a1.991,1.991,0,0,0,2-1.987V42Z" style="fill:#24b47e"/><path d="M196,37v6h21V37a2,2,0,0,0-2-2H198A2,2,0,0,0,196,37Z" style="fill:#45b2e8"/><path d="M198.647,36.623c-.91-.62-1.647-.226-1.647.883v9.988c0,1.108.773,1.549,1.719.99L208,43Z" style="fill:#fff"/><path d="M202.8,41.845l-1.458,0a.2.2,0,0,1-.193-.14l-.452-1.389a.2.2,0,0,0-.386,0l-.45,1.387a.2.2,0,0,1-.193.14H198.2a.2.2,0,0,0-.118.367l1.18.858a.2.2,0,0,1,.073.227l-.45,1.387a.2.2,0,0,0,.313.228l1.18-.792a.2.2,0,0,1,.238,0l1.18.792a.2.2,0,0,0,.313-.227L201.66,43.3a.2.2,0,0,1,.074-.227l1.18-.858a.2.2,0,0,0,.075-.227.2.2,0,0,0-.194-.143Z" style="fill:#e25950"/><path d="M229,35h17a2,2,0,0,1,2,2V48a2,2,0,0,1-2,2H229a2,2,0,0,1-2-2V37A2,2,0,0,1,229,35Z" style="fill:#e25950"/><path d="M248,44H236v6h-3V44h-6V41h6V35h3v6h12Z" style="fill:#f6f9fc"/><path d="M247,45V40h1v5Zm-15,4h5v1h-5Zm0-14h5v1h-5Zm-5,5h1v5h-1Z" style="fill:#e25950;opacity:0.10000000149011612;isolation:isolate"/><path d="M264,35V50h13.008A1.993,1.993,0,0,0,279,48.008V36.992A1.993,1.993,0,0,0,277.008,35Z" style="fill:#f6f9fc"/><path d="M260,35a2,2,0,0,0-2,1.992V48.008A1.99,1.99,0,0,0,259.988,50H268V35Z" style="fill:#24b47e"/><path d="M268,38.027v1.021a3.486,3.486,0,0,0,0,6.9v1.02a4.5,4.5,0,1,1,0-8.945Z" style="fill:#e25950"/><path d="M271.482,40.4A3.63,3.63,0,0,0,268.6,39a3.5,3.5,0,1,0,0,7,3.63,3.63,0,0,0,2.882-1.4,4.5,4.5,0,1,1,0-4.194Z" style="fill:#e25950"/><circle cx="270.5" cy="42.5" r="1.5" style="fill:#e25950"/><path d="M277,36a1,1,0,0,1,1,1V48a1,1,0,0,1-1,1h-9v1h9a2,2,0,0,0,2-2V37a2,2,0,0,0-2-2h-9v1Z" style="fill:#8898aa;opacity:0.20000000298023224;isolation:isolate"/><path d="M291,35h17a2,2,0,0,1,2,2v5H289V37A2,2,0,0,1,291,35Z" style="fill:#ffdd03"/><path d="M289,42h21v4H289Z" style="fill:#555abf"/><path d="M289,46h21v2a2,2,0,0,1-2,2H291a2,2,0,0,1-2-2Z" style="fill:#e25950"/><path d="M299.5,39a3.5,3.5,0,1,0,3.5,3.5A3.5,3.5,0,0,0,299.5,39Zm0,6a2.5,2.5,0,1,1,2.5-2.5A2.5,2.5,0,0,1,299.5,45Z" style="fill:#ffdd03"/><circle cx="299.5" cy="42.5" r="2.5" style="fill:#6fc242"/><path d="M321.995,35A2,2,0,0,0,320,37v3h21V37.005A2.006,2.006,0,0,0,339.005,35Z" style="fill:#45b2e8"/><path d="M320,44v4a2,2,0,0,0,1.995,2h17.01A2,2,0,0,0,341,48V44Z" style="fill:#f6f9fc"/><path d="M339,50H322a2,2,0,0,1-2-2V42h1v6a1,1,0,0,0,1,1h17a1,1,0,0,0,1-1V42h1v6A2,2,0,0,1,339,50Z" style="fill:#8898aa;opacity:0.20000000298023224;isolation:isolate"/><path d="M320,40h21v5H320Z"/><path d="M352.995,35A2,2,0,0,0,351,37v3h21V37.005A2.006,2.006,0,0,0,370.005,35Z" style="fill:#e25950"/><path d="M351,40h21v5H351Z" style="fill:#fff"/><path d="M351,45v2.995A2.006,2.006,0,0,0,352.995,50h17.01A2,2,0,0,0,372,48V45Z"/><path d="M358,41l3,1-3,2Zm7,0v3l-3-2Zm-4,2h1v1h-1Z"/><path d="M358,41l3,1-3,2Zm7,0v3l-3-2Zm-4,2h1v1h-1Z" style="fill:#fcd669"/><path d="M351,40h1v5h-1Zm20,0h1v5h-1Z" style="fill:#eaeef3"/><path d="M382,38h21v9H382Z" style="fill:#fcd669"/><path d="M382,39V37a2,2,0,0,1,2-2h17a2,2,0,0,1,2,2v2Zm19,11H384a2,2,0,0,1-2-2V46h21v2A2,2,0,0,1,401,50Z" style="fill:#e25950"/><path d="M387,40h2v2.5h-2Z" style="fill:#f6f9fc"/><path d="M387,45a2,2,0,0,1-2-2v-.5h2Z" style="fill:#e25950;opacity:0.5;isolation:isolate"/><path d="M387,45V42.5h2V43A2,2,0,0,1,387,45Zm-2-5h2v2.5h-2Z" style="fill:#e25950"/><path d="M415,35h17a2,2,0,0,1,2,2V48a2,2,0,0,1-2,2H415a2,2,0,0,1-2-2V37A2,2,0,0,1,415,35Z" style="fill:#43458b"/><path d="M427.906,43.219a.844.844,0,1,1,.844-.844h0a.843.843,0,0,1-.842.844Zm-1.895-3.444a.849.849,0,1,1,1.2-.021l-.01.011A.849.849,0,0,1,426.011,39.775Zm1.165,5.2a.85.85,0,1,1-1.2.051L426,45a.85.85,0,0,1,1.176-.025Zm-3.8,2.775a.844.844,0,1,1,.844-.844h0A.844.844,0,0,1,423.375,47.75Zm0-9.063a.844.844,0,1,1,.843-.845h0a.843.843,0,0,1-.842.844Zm-3.765,7.489a.849.849,0,1,1,1.2-.021l-.01.011A.849.849,0,0,1,419.61,46.176Zm-.036-6.4a.85.85,0,1,1,1.15,0A.85.85,0,0,1,419.574,39.775Zm.113,2.6a.844.844,0,1,1-.845-.843h0a.843.843,0,0,1,.844.842Z" style="fill:#fce883"/><path d="M446,35h17a2,2,0,0,1,2,2V48a2,2,0,0,1-2,2H446a2,2,0,0,1-2-2V37A2,2,0,0,1,446,35Z" style="fill:#f6f9fc"/><path d="M463,50H446a2,2,0,0,1-2-2V37a2,2,0,0,1,2-2h17a2,2,0,0,1,2,2V48A2,2,0,0,1,463,50Zm1-13a1,1,0,0,0-1-1H446a1,1,0,0,0-1,1V48a1,1,0,0,0,1,1h17a1,1,0,0,0,1-1Z" style="fill:#8898aa;opacity:0.25;isolation:isolate"/><path d="M465,44H453v6h-3V44h-6V41h6V35h3v6h12Z" style="fill:#555abf"/><rect x="475" y="35" width="21" height="15" rx="2" ry="2" style="fill:#f6f9fc"/><path d="M494,36a1,1,0,0,1,1,1V48a1,1,0,0,1-1,1H477a1,1,0,0,1-1-1V37a1,1,0,0,1,1-1h17m0-1H477a2,2,0,0,0-2,2V48a2,2,0,0,0,2,2h17a2,2,0,0,0,2-2V37A2,2,0,0,0,494,35Z" style="fill:#eaeef3"/><path d="M496,41H482.58V35h-3v6H475v3h4.58v6h3V44H496Z" style="fill:#0172c6"/><path d="M496,42H481.58V35h-1v7H475v1h5.58v7h1V43H496Z" style="fill:#e25950"/><path d="M512,35h9V50h-9Z" style="fill:#f6f9fc"/><path d="M512,50V49h9v1Zm0-15h9v1h-9Z" style="fill:#8898aa;opacity:0.10000000149011612;isolation:isolate"/><path d="M508,35h5V50h-5a2,2,0,0,1-2-2V37A2,2,0,0,1,508,35Z" style="fill:#555abf"/><path d="M525,50h-5V35h5a2,2,0,0,1,2,2V48A2,2,0,0,1,525,50Z" style="fill:#e25950"/><path d="M11.995,60a2,2,0,0,0-2,2v3H31V62.005A2.006,2.006,0,0,0,29,60Z" style="fill:#24b47e"/><path d="M10,65H31v5H10Z" style="fill:#fcd669"/><path d="M10,70v3a2.006,2.006,0,0,0,1.995,2h17.01a2,2,0,0,0,2-2V70Z" style="fill:#217ab7"/><path d="M10,65h1v5H10Zm20,0h1v5H30Z" style="fill:#e9c863"/><path d="M61.929,73.5H59.5V75h-16V73.5H41.071A1.966,1.966,0,0,1,41,73V62a1.966,1.966,0,0,1,.071-.5H43.5V60h16v1.5h2.429A1.966,1.966,0,0,1,62,62V73A1.966,1.966,0,0,1,61.929,73.5Z" style="fill:#43458b"/><path d="M58.659,60H60a2,2,0,0,1,2,2v.454L58.629,65H62v5H58.712L62,72.483V73a2,2,0,0,1-2,2H58.742L54,71.419V75H49V71.419L44.258,75H43a2,2,0,0,1-2-2v-.517L44.288,70H41V65h3.371L41,62.454V62a2,2,0,0,1,2-2h1.341L49,63.519V60h5v3.519Z" style="fill:#f6f9fc"/><path d="M53,69v6H50V69H41V66h9V60h3v6h9v3Zm.5-3.5v-.218l6.929-5.233a1.99,1.99,0,0,1,1.138.722L55.306,65.5ZM41.209,61.126a2.005,2.005,0,0,1,.9-.906L49.1,65.5H47ZM49.5,69.5v.218l-6.929,5.233a1.99,1.99,0,0,1-1.138-.722L47.694,69.5Zm12.291,4.374a2,2,0,0,1-.9.906L53.9,69.5H56Z" style="fill:#e25950"/><path d="M74,60H91a2,2,0,0,1,2,2v5.5H72V62A2,2,0,0,1,74,60Z" style="fill:#f6f9fc"/><path d="M91,61a1,1,0,0,1,1,1v5.5h1V62a2,2,0,0,0-2-2H74a2,2,0,0,0-2,2v5.5h1V62a1,1,0,0,1,1-1H91" style="fill:#eaeef3"/><path d="M76.5,67.5a4,4,0,0,1,8,0Zm4,0H72V73a2,2,0,0,0,2,2H91a2,2,0,0,0,2-2V67.5H88.5" style="fill:#e25950"/><path d="M84.5,67.5a4,4,0,0,1-8,0Z" style="fill:#fff"/><path d="M103,64h21v7H103Z" style="fill:#f6f9fc"/><path d="M105,60a1.992,1.992,0,0,0-2,1.989V64h21V62a2,2,0,0,0-2-2Z" style="fill:#e25950"/><path d="M103,65h21v5H103Z" style="fill:#43458b"/><path d="M103,71v2a2,2,0,0,0,2,2h17.01a1.992,1.992,0,0,0,2-1.989V71Z" style="fill:#24b47e"/><path d="M153,60H136a2,2,0,0,0-2,2V73a2,2,0,0,0,2,2h17a2,2,0,0,0,2-2V62A2,2,0,0,0,153,60Z" style="fill:#555abf"/><path d="M134,64h10v2H134Z" style="fill:#f6f9fc"/><path d="M140,60V70h-2V60Zm4,2h11v2H144Z" style="fill:#f6f9fc"/><path d="M154,62h1v2h-1Z" style="fill:#eaeef3"/><path d="M144,66h11v2H144Z" style="fill:#f6f9fc"/><path d="M154,66h1v2h-1Z" style="fill:#eaeef3"/><path d="M134,70h21v2H134Z" style="fill:#f6f9fc"/><path d="M154,70h1v2h-1Z" style="fill:#eaeef3"/><path d="M167.006,60A2,2,0,0,0,165,61.992V73.008A1.992,1.992,0,0,0,166.992,75H172V60ZM179,60V75h4.994A2,2,0,0,0,186,73.008V61.992A1.992,1.992,0,0,0,184.008,60H179Z" style="fill:#45b2e8"/><path d="M172,60h7V75h-7Z" style="fill:#f6f9fc"/><path d="M175.5,69a1.5,1.5,0,1,1,1.5-1.5A1.5,1.5,0,0,1,175.5,69Zm0-2a.5.5,0,1,0,.5.5A.5.5,0,0,0,175.5,67Z" style="fill:#24b47e"/><path d="M172,75V74h7v1Zm0-14V60h7v1Z" style="fill:#eaeef3"/><rect x="197" y="61" width="19" height="13" rx="1.77" ry="1.77" style="fill:#0172c6"/><path d="M214.23,61A1.77,1.77,0,0,1,216,62.77h0v9.46A1.77,1.77,0,0,1,214.23,74H198.77A1.77,1.77,0,0,1,197,72.23h0V62.77A1.77,1.77,0,0,1,198.77,61h15.46m0-1H198.77A2.77,2.77,0,0,0,196,62.77h0v9.46A2.77,2.77,0,0,0,198.77,75h15.46A2.77,2.77,0,0,0,217,72.23h0V62.77A2.77,2.77,0,0,0,214.23,60Z" style="fill:#e25950"/><path d="M207,71h-1l-2-2h5Z" style="fill:#fcd669"/><path d="M207,64h-1l-2.17,2.35L204,68h5l.21-1.58Z" style="fill:#9cdbff"/><path d="M204.5,69h1l-1-2Z" style="fill:#f6f9fc"/><path d="M207,67a4.38,4.38,0,0,1,1,3" style="fill:none;stroke:#0a9362;stroke-miterlimit:10;stroke-width:0.5px"/><path d="M206.5,64.19c1,.67,2.5,2,2.5,3.31s-1.52,2.63-2.5,3.31c-1-.67-2.5-2-2.5-3.31s1.52-2.63,2.5-3.31m0-1.19s-3.5,2-3.5,4.5,3.5,4.5,3.5,4.5,3.5-2,3.5-4.5S206.5,63,206.5,63Z" style="fill:#e25950"/><circle cx="207" cy="67" r="1" style="fill:#0a9362"/><path d="M229,60h17a2,2,0,0,1,2,2V73a2,2,0,0,1-2,2H229a2,2,0,0,1-2-2V62A2,2,0,0,1,229,60Z" style="fill:#e25950"/><path d="M237.31,67.4a2.311,2.311,0,0,1,1.77-1.9c1.389-.542,2.732.89,2.91,1.681-.054.046-.147-.023-.27-.093a.492.492,0,0,0-.56-.032c-.384.259-.466.476-.916.632A1.226,1.226,0,0,1,239,67.356a1.22,1.22,0,0,0-1.686.044m-.271.441a2.31,2.31,0,0,1-2.55.5c-1.441-.379-1.686-2.326-1.365-3.071.159-.013.136.573.6.589a2.813,2.813,0,0,0,.41-.018,1.552,1.552,0,0,1,.7.046,1.224,1.224,0,0,1,.816,1,1.22,1.22,0,0,0,1.389.956m.36.091a2.311,2.311,0,0,1-.357,2.574c-.827,1.239-2.748.837-3.347.291.039-.156.585.057.75-.374s.11-.657.39-1.043a1.225,1.225,0,0,1,1.209-.446,1.22,1.22,0,0,0,1.355-1m.114-.311a2.311,2.311,0,0,1,2.357,1.094c.943,1.153,0,2.873-.7,3.287-.138-.083.226-.543-.14-.828s-.6-.3-.882-.677a1.224,1.224,0,0,1-.073-1.287,1.22,1.22,0,0,0-.562-1.589m-.541-.119a2.308,2.308,0,0,1-1.223-2.292c-.06-1.489,1.731-2.293,2.537-2.2.06.149-.508.3-.388.744s.3.6.3,1.072a1.225,1.225,0,0,1-.716,1.072,1.218,1.218,0,0,0-.507,1.607" style="fill:#fff"/><path d="M259.995,60A2,2,0,0,0,258,62v3h21V62.005A2.006,2.006,0,0,0,277.005,60Z" style="fill:#45b2e8"/><path d="M258,65h21v5H258Z" style="fill:#f6f9fc"/><path d="M258,70v3a2.006,2.006,0,0,0,1.995,2h17.01A2,2,0,0,0,279,73V70Z" style="fill:#45b2e8"/><path d="M258,65h1v5h-1Zm20,0h1v5h-1Z" style="fill:#eaeef3"/><path d="M268,67.5a.5.5,0,1,1,.5.5A.5.5,0,0,1,268,67.5Zm-3-1a.5.5,0,1,1,.5.5A.5.5,0,0,1,265,66.5Zm0,2a.5.5,0,1,1,.5.5A.5.5,0,0,1,265,68.5Zm6,0a.5.5,0,1,1,.5.5A.5.5,0,0,1,271,68.5Zm0-2a.5.5,0,1,1,.5.5A.5.5,0,0,1,271,66.5Z" style="fill:#45b2e8"/><path d="M290.995,60A1.991,1.991,0,0,0,289,61.987V68h21V62a2,2,0,0,0-1.995-2Z" style="fill:#43458b"/><path d="M289,68v4.994A2.006,2.006,0,0,0,290.995,75h17.01a1.993,1.993,0,0,0,2-1.991c0-.005,0-.01,0-.015V68Z" style="fill:#e25950"/><path d="M295,65h9v5h-9Z" style="fill:#fff"/><path d="M303.9,70h-8.8c.454-1.141,2.408-2,4.4-2s3.947.859,4.4,2Zm-5.4-4h2v1l-.983,1L298.5,67Z" style="fill:#24b47e"/><path d="M297,67h1v1h-1Zm4,0h1v1h-1Z" style="fill:#fcd669"/><path d="M296,66h1v1h-1Zm6,0h1v1h-1Z" style="fill:#fcd669"/><path d="M321.995,60A2,2,0,0,0,320,62v3h21V62.005A2.006,2.006,0,0,0,339.005,60Z" style="fill:#e25950"/><path d="M320,65h21v5H320Z" style="fill:#f6f9fc"/><path d="M320,70v3a2.006,2.006,0,0,0,1.995,2h17.01A2,2,0,0,0,341,73V70Z" style="fill:#24b47e"/><path d="M320,65h1v5h-1Zm20,0h1v5h-1Z" style="fill:#eaeef3"/><path d="M351,67v6a2,2,0,0,0,1.995,2h17.01A1.991,1.991,0,0,0,372,73.013V67Z" style="fill:#f6f9fc"/><path d="M351.5,67.5V73a1.5,1.5,0,0,0,1.495,1.5h17.01a1.491,1.491,0,0,0,1.495-1.487V67.5Z" style="fill:none;stroke:#eaeef3"/><path d="M352.995,60A1.991,1.991,0,0,0,351,61.987V68h21V62a2,2,0,0,0-1.995-2Z" style="fill:#e25950"/><path d="M388,60h9V75h-9Z" style="fill:#f6f9fc"/><path d="M388,75V74h9v1Zm0-15h9v1h-9Z" style="fill:#8898aa;opacity:0.10000000149011612;isolation:isolate"/><path d="M384,60h5V75h-5a2,2,0,0,1-2-2V62A2,2,0,0,1,384,60Z" style="fill:#24b47e"/><path d="M401,75h-5V60h5a2,2,0,0,1,2,2V73A2,2,0,0,1,401,75Z" style="fill:#f79a59"/><path d="M414.493,60A1.493,1.493,0,0,0,413,61.493V63h21V61.5a1.5,1.5,0,0,0-1.493-1.5Z" style="fill:#43458b"/><path d="M414,63h19v9H414Z" style="fill:#f6f9fc"/><path d="M425.125,67.5,424,66h-1l-1.125,1.5L423,69h1Zm.75,0L427,69h-2l-1.5,2.5L422,69h-2l1.125-1.5L420,66h2l1.5-2.5L425,66h2Z" style="fill:#43458b"/><path d="M413,72v1.5a1.5,1.5,0,0,0,1.493,1.5h18.014A1.493,1.493,0,0,0,434,73.507V72Z" style="fill:#43458b"/><path d="M413,63h1v9h-1Zm20,0h1v9h-1Z" style="fill:#eaeef3"/><rect x="444" y="60" width="21" height="15" rx="2" ry="2" style="fill:#e25950"/><path d="M453.57,72.98l1.19-1.62-1.97-2.48,2.85-1.57,2.7.63.5-.87.64-3.09.83-.1.25-.44-1.95.04-.63,3.09-2.5-.87-.97-3.01h-1l-3,1-.5-.67h-.5l1,1.68,3-1.01.5,2.51-2.5,2.08.38,1.02,1.66,1.99.27.41-.46.7.21.58Z" style="fill:#f6f9fc"/><path d="M476.995,60A2,2,0,0,0,475,62v3h21V62.005A2.006,2.006,0,0,0,494.005,60Z" style="fill:#f79a59"/><path d="M475,65h21v5H475Z" style="fill:#fff"/><path d="M475,70v3a2.006,2.006,0,0,0,1.995,2h17.01A2,2,0,0,0,496,73V70Z" style="fill:#24b47e"/><path d="M485.5,69a1.5,1.5,0,1,1,1.5-1.5A1.5,1.5,0,0,1,485.5,69Zm0-2a.5.5,0,1,0,.5.5A.5.5,0,0,0,485.5,67Z" style="fill:#6772e5"/><path d="M475,65h1v5h-1Zm20,0h1v5h-1Z" style="fill:#eaeef3"/><path d="M507.995,60A2,2,0,0,0,506,62v3h21V62.005A2.006,2.006,0,0,0,525.005,60Z" style="fill:#e25950"/><path d="M506,65h21v5H506Z" style="fill:#fff"/><path d="M506,70v3a2.006,2.006,0,0,0,1.995,2h17.01A2,2,0,0,0,527,73V70Z"/><path d="M514,66h1v3h-1Zm2,0h1v3h-1Zm2,0h1v3h-1Z" style="fill:#24b47e"/><path d="M506,65h1v5h-1Zm20,0h1v5h-1Z" style="fill:#eaeef3"/><path d="M11.995,85a2,2,0,0,0-2,2v3H31V87a2.006,2.006,0,0,0-2-2Z" style="fill:#24b47e"/><path d="M10,90H31v5H10Z" style="fill:#fff"/><path d="M10,95v3a2.006,2.006,0,0,0,1.995,2h17.01a2,2,0,0,0,2-2V95Z" style="fill:#e25950"/><circle cx="20.5" cy="92.5" r="1" style="fill:none;stroke:#e25950"/><path d="M11,88.5a.5.5,0,1,1,.5.5A.5.5,0,0,1,11,88.5Zm2,0a.5.5,0,1,1,.5.5A.5.5,0,0,1,13,88.5Zm2,0a.5.5,0,1,1,.5.5A.5.5,0,0,1,15,88.5Zm2,0a.5.5,0,1,1,.5.5A.5.5,0,0,1,17,88.5Zm2,0a.5.5,0,1,1,.5.5A.5.5,0,0,1,19,88.5Zm2,0a.5.5,0,1,1,.5.5A.5.5,0,0,1,21,88.5Zm2,0a.5.5,0,1,1,.5.5A.5.5,0,0,1,23,88.5Zm2,0a.5.5,0,1,1,.5.5A.5.5,0,0,1,25,88.5Zm2,0a.5.5,0,1,1,.5.5A.5.5,0,0,1,27,88.5Zm2,0a.5.5,0,1,1,.5.5A.5.5,0,0,1,29,88.5Z" style="fill:#fff;opacity:0.699999988079071;isolation:isolate"/><path d="M11,96.5a.5.5,0,1,1,.5.5A.5.5,0,0,1,11,96.5Zm2,0a.5.5,0,1,1,.5.5A.5.5,0,0,1,13,96.5Zm2,0a.5.5,0,1,1,.5.5A.5.5,0,0,1,15,96.5Zm2,0a.5.5,0,1,1,.5.5A.5.5,0,0,1,17,96.5Zm2,0a.5.5,0,1,1,.5.5A.5.5,0,0,1,19,96.5Zm2,0a.5.5,0,1,1,.5.5A.5.5,0,0,1,21,96.5Zm2,0a.5.5,0,1,1,.5.5A.5.5,0,0,1,23,96.5Zm2,0a.5.5,0,1,1,.5.5A.5.5,0,0,1,25,96.5Zm2,0a.5.5,0,1,1,.5.5A.5.5,0,0,1,27,96.5Zm2,0a.5.5,0,1,1,.5.5A.5.5,0,0,1,29,96.5Z" style="fill:#fff;opacity:0.5;isolation:isolate"/><path d="M10,90h1v5H10Zm20,0h1v5H30Z" style="fill:#eaeef3"/><rect x="41" y="85" width="21" height="15" rx="2" ry="2" style="fill:#0172c6"/><path d="M62,91H48.58V85h-3v6H41v3h4.58v6h3V94H62Z" style="fill:#f6f9fc"/><path d="M62,92H47.58V85h-1v7H41v1h5.58v7h1V93H62Z" style="fill:#e25950"/><path d="M78,85h9v15H78Z" style="fill:#f6f9fc"/><path d="M78,100V99h9v1Zm0-15h9v1H78Z" style="fill:#8898aa;opacity:0.10000000149011612;isolation:isolate"/><path d="M74,85h5v15H74a2,2,0,0,1-2-2V87A2,2,0,0,1,74,85Z" style="fill:#24b47e"/><path d="M91,100H86V85h5a2,2,0,0,1,2,2V98A2,2,0,0,1,91,100Z" style="fill:#e25950"/><rect x="103" y="85" width="21" height="15" rx="2" ry="2" style="fill:#f6f9fc"/><path d="M115,87.5c0,.83-1.5,2.5-1.5,2.5s-1.5-1.67-1.5-2.5a1.5,1.5,0,0,1,3,0Z" style="fill:#e25950"/><path d="M122,86a1,1,0,0,1,1,1V98a1,1,0,0,1-1,1H105a1,1,0,0,1-1-1V87a1,1,0,0,1,1-1h17m0-1H105a2,2,0,0,0-2,2V98a2,2,0,0,0,2,2h17a2,2,0,0,0,2-2V87A2,2,0,0,0,122,85Z" style="fill:#eaeef3"/><path d="M115.17,92.11l8.52-6.17A2,2,0,0,0,122,85h-.42l-8.14,5.89L105,85a2,2,0,0,0-1.81,1.16l8.53,6L103,98.41a2,2,0,0,0,1.4,1.49l9-6.55,9.3,6.5a2,2,0,0,0,1.3-1.59Z" style="fill:#e25950"/><path d="M154.223,85.428a1.06,1.06,0,0,1-.091.068L144.5,91l-9.632-5.5a1.023,1.023,0,0,1-.091-.068A1.989,1.989,0,0,0,134,87v1l8,4.5L134,97v1a1.989,1.989,0,0,0,.777,1.572,1.023,1.023,0,0,1,.091-.068L144.5,94l9.632,5.5a1.06,1.06,0,0,1,.091.068A1.989,1.989,0,0,0,155,98V97l-8-4.5,8-4.5V87A1.989,1.989,0,0,0,154.223,85.428Z" style="fill:#fcd669"/><path d="M144.5,91l9.632-5.5a1.06,1.06,0,0,0,.091-.068A1.98,1.98,0,0,0,153,85H136a1.98,1.98,0,0,0-1.223.428,1.023,1.023,0,0,0,.091.068Zm0,3-9.632,5.5a1.023,1.023,0,0,0-.091.068A1.98,1.98,0,0,0,136,100h17a1.98,1.98,0,0,0,1.223-.428,1.06,1.06,0,0,0-.091-.068Z" style="fill:#24b47e"/><path d="M134,88v9l8-4.5Zm21,9V88l-8,4.5Z"/><path d="M165,90h21v5H165Z" style="fill:#f6f9fc"/><path d="M186,87a2.006,2.006,0,0,0-1.995-2H167a1.975,1.975,0,0,0-1.325.513.78.78,0,0,1,.135.063L172,90h14Z"/><path d="M165.675,99.485A1.975,1.975,0,0,0,167,100h17.01a2,2,0,0,0,2-2V95H172l-6.194,4.424a.772.772,0,0,1-.131.06Z" style="fill:#24b47e"/><path d="M172,90l-6.194-4.424a.78.78,0,0,0-.135-.063A2,2,0,0,0,165,87.006V98a2,2,0,0,0,.675,1.49.772.772,0,0,0,.131-.06L172,95l3.5-2.5Z" style="fill:#e25950"/><circle cx="168.5" cy="92.5" r="1.5" style="fill:#f6f9fc"/><path d="M185,90h1v5h-1Z" style="fill:#eaeef3"/><path d="M198,85h17a2,2,0,0,1,2,2V98a2,2,0,0,1-2,2H198a2,2,0,0,1-2-2V87A2,2,0,0,1,198,85Z" style="fill:#f6f9fc"/><path d="M215,100H198a2,2,0,0,1-2-2V87a2,2,0,0,1,2-2h17a2,2,0,0,1,2,2V98A2,2,0,0,1,215,100Zm1-13a1,1,0,0,0-1-1H198a1,1,0,0,0-1,1V98a1,1,0,0,0,1,1h17a1,1,0,0,0,1-1Z" style="fill:#8898aa;opacity:0.20000000298023224;isolation:isolate"/><path d="M206.5,89a3.5,3.5,0,1,1-3.5,3.5A3.5,3.5,0,0,1,206.5,89Z" style="fill:#e25950"/><rect x="227" y="85" width="21" height="15" rx="2" ry="2" style="fill:#e25950"/><path d="M240.5,96a.5.5,0,1,1,.5-.5A.5.5,0,0,1,240.5,96Zm-6-6a.5.5,0,1,1,.5-.5A.5.5,0,0,1,234.5,90Zm6,0a.5.5,0,1,1,.5-.5A.5.5,0,0,1,240.5,90Zm-6,6a.5.5,0,1,1,.5-.5A.5.5,0,0,1,234.5,96Zm3-7a.5.5,0,1,1,.5-.5A.5.5,0,0,1,237.5,89Zm-4,4a.5.5,0,1,1,.5-.5A.5.5,0,0,1,233.5,93Zm4,4a.5.5,0,1,1,.5-.5A.5.5,0,0,1,237.5,97Zm4-4a.5.5,0,1,1,.5-.5A.5.5,0,0,1,241.5,93Zm-4,2a2.5,2.5,0,1,1,2.5-2.5A2.5,2.5,0,0,1,237.5,95Z" style="fill:#fedc32"/><rect x="258" y="85" width="21" height="15" rx="3" ry="3" style="fill:#fcd669"/><rect x="258.5" y="85.5" width="20" height="14" rx="3" ry="3" style="fill:none;stroke:#000;stroke-opacity:0.07999999821186066"/><path d="M279,88l-18,12h-2a1,1,0,0,1-1-1V97l18-12h2a1,1,0,0,1,1,1v2Z"/><path d="M259.992,85A1.99,1.99,0,0,0,258,86.988V95l15-10Z" style="fill:#24b47e"/><path d="M279,98a2,2,0,0,1-1.992,2H264l15-10Z" style="fill:#e25950"/><circle cx="265.5" cy="94.5" r="1.5" style="fill:#fff"/><circle cx="271.5" cy="90.5" r="1.5" style="fill:#fff"/><path d="M289,88h21v9H289Z" style="fill:#f6f9fc"/><path d="M290.493,85A1.493,1.493,0,0,0,289,86.493V88h21V86.5a1.5,1.5,0,0,0-1.493-1.5Z" style="fill:#43458b"/><path d="M289,89h21v7H289Z" style="fill:#e25950"/><path d="M289,97v1.5a1.5,1.5,0,0,0,1.493,1.5h18.014A1.493,1.493,0,0,0,310,98.507V97Z" style="fill:#43458b"/><path d="M294.5,94a1.5,1.5,0,1,0-1.5-1.5A1.5,1.5,0,0,0,294.5,94Z" style="fill:#fff"/><path d="M322,85h17a2,2,0,0,1,2,2V98a2,2,0,0,1-2,2H322a2,2,0,0,1-2-2V87A2,2,0,0,1,322,85Z" style="fill:#f6f9fc"/><path d="M321.995,85h17.01A2,2,0,0,1,341,86.992V98.008A1.994,1.994,0,0,1,339.005,100h-17.01A2,2,0,0,1,320,98.008V86.992A1.994,1.994,0,0,1,321.995,85Zm0,1A1,1,0,0,0,321,87V98a1,1,0,0,0,.995,1h17.01A1,1,0,0,0,340,98V87a1,1,0,0,0-.995-1Z" style="fill:#dfe5eb"/><path d="M327,92.5a3.5,3.5,0,1,1,6.663,1.5h-6.326A3.486,3.486,0,0,1,327,92.5Z" style="fill:#e25950"/><path d="M334,88.207V88h1.207l1.293,1.793V90h-1.207Zm-9.5,1.586L325.793,88H327v.207L325.707,90H324.5Zm9.5,7L335.293,95H336.5v.207L335.207,97H334Zm-9.5-1.586V95h1.207L327,96.793V97h-1.207Z" style="fill-opacity:0.8999999761581421"/><path d="M332.175,91.736a1.733,1.733,0,0,1,1.773,1.37A3.5,3.5,0,0,1,330.57,96a3.668,3.668,0,0,1-3.163-1.86A3.485,3.485,0,0,1,327,92.53a3.28,3.28,0,0,1,.392-1.53c0,.047,0,.1,0,.154,0,.674,0,2.084,1.692,2.084S330.734,91.736,332.175,91.736Z" style="fill:#43458b"/><path d="M353,85v5h19V87a2,2,0,0,0-1.993-2H353Z" style="fill:#24b47e"/><path d="M352,90h20v5H352Z" style="fill:#f6f9fc"/><path d="M353,95v5h17a2,2,0,0,0,2-2V95Z" style="fill:#e25950"/><path d="M359,90v5l-5.995,5a2,2,0,0,1-2-1.987V86.992A2,2,0,0,1,353.005,85Z"/><path d="M371,90h1v5h-1Z" style="fill:#eaeef3"/><rect x="382" y="85" width="21" height="15" rx="2" ry="2" style="fill:#1cafc8"/><circle cx="392.5" cy="92.5" r="3.5" style="fill:#fcd669"/><path d="M383,88h4v9h-4Z" style="fill:#047a9d;fill-opacity:0.19900000095367432;opacity:0.7799999713897705;isolation:isolate"/><path d="M384,89h2v1h-2Zm0,2h2v1h-2Zm0,2h2v1h-2Zm0,2h2v1h-2Z" style="fill:#fcd669"/><path d="M414.995,85A1.992,1.992,0,0,0,413,86.989V89h21V87a2,2,0,0,0-1.995-2Z" style="fill:#e25950"/><path d="M413,89h21v7H413Z" style="fill:#43458b"/><path d="M413,96v2a2,2,0,0,0,1.995,2h17.01A1.992,1.992,0,0,0,434,98.011V96Z" style="fill:#e25950"/><circle cx="423.5" cy="92.5" r="1.5" style="fill:#fff"/><path d="M445.995,85A1.992,1.992,0,0,0,444,86.989V89h21V87a2,2,0,0,0-1.995-2Z" style="fill:#e25950"/><path d="M444,89h21v7H444Z" style="fill:#f6f9fc"/><path d="M444,96v2a2,2,0,0,0,1.995,2h17.01A1.992,1.992,0,0,0,465,98.011V96Z" style="fill:#e25950"/><path d="M455,94v1h-1V94h-2l2.5-4,2.5,4Z" style="fill:#24b47e"/><path d="M444,89h1v7h-1Zm20,0h1v7h-1Z" style="fill:#eaeef3"/><rect x="475" y="85" width="21" height="15" rx="2" ry="2" style="fill:#45b2e8"/><path d="M485.5,87,480,98h11Z" style="fill:#fff"/><path d="M485.5,90l-4,8h8Z"/><path d="M485.5,93.8,480,98h11Z" style="fill:#fcd669"/><path d="M507.995,85A2,2,0,0,0,506,87v3h21V87a2.006,2.006,0,0,0-1.995-2Z" style="fill:#555abf"/><path d="M506,90h21v5H506Z" style="fill:#f6f9fc"/><path d="M506,95v3a2.006,2.006,0,0,0,1.995,2h17.01A2,2,0,0,0,527,98V95Z" style="fill:#24b47e"/><path d="M516.5,91l-1.856,2.227c-.356.427-.2.773.356.773h3c.552,0,.713-.344.356-.773Z"/><path d="M506,90h1v5h-1Zm20,0h1v5h-1Z" style="fill:#eaeef3"/><path d="M12,110a2,2,0,0,0-2,2v3H31v-3a2,2,0,0,0-2-2Z" style="fill:#fcd669"/><path d="M10,115H31v5H10Z" style="fill:#24b47e"/><path d="M10,120v3a2,2,0,0,0,2,2H29a2,2,0,0,0,2-2v-3Z" style="fill:#e25950"/><path d="M41,114H62v7H41Z" style="fill:#f6f9fc"/><path d="M61,121v-7h1v7Zm-20-7h1v7H41Z" style="fill:#8898aa;opacity:0.10000000149011612;isolation:isolate"/><path d="M41,123v-3H62v3a2,2,0,0,1-2,2H43A2,2,0,0,1,41,123Z" style="fill:#45b2e8"/><path d="M62,112v3H41v-3a2,2,0,0,1,2-2H60A2,2,0,0,1,62,112Z" style="fill:#e25950"/><path d="M74,110a1.992,1.992,0,0,0-2,1.989V116H93v-4a2,2,0,0,0-2-2Z" style="fill:#b1372f"/><path d="M72,116H93v3H72Z" style="fill:#f8fafc"/><path d="M72,119v4a2,2,0,0,0,2,2h17.01a1.992,1.992,0,0,0,2-1.989V119Z" style="fill:#b1372f"/><path d="M72,116h1v3H72Zm20,0h1v3H92Z" style="fill:#eaeef3"/><rect x="103" y="110" width="21" height="15" rx="2" ry="2" style="fill:#e25950"/><path d="M113.5,112.5l3,9-8-6h10l-8,6Z" style="fill:none;stroke:#24b47e;stroke-linecap:round;stroke-linejoin:round"/><path d="M136.006,110A2,2,0,0,0,134,111.992v11.016A1.992,1.992,0,0,0,135.992,125H141V110Z" style="fill:#f6f9fc"/><path d="M136,111a1,1,0,0,0-1,1v11a1,1,0,0,0,1,1h9v1h-9a2,2,0,0,1-2-2V112a2,2,0,0,1,2-2h9v1Z" style="fill:#8898aa;opacity:0.20000000298023224;isolation:isolate"/><path d="M153.14,110a2.1,2.1,0,0,1,1.86,2.276V118H141v-8Z" style="fill:#e25950"/><path d="M155,123.257A1.805,1.805,0,0,1,153.14,125H141v-7h14Z" style="fill:#24b47e"/><rect x="165" y="110" width="21" height="15" rx="2" ry="2" style="fill:#fcd669"/><path d="M185,116.143l1-.143v-3.757l-1,.382-6.5,2.477-.47-.883L182.61,111l1.418-1c-.011,0-.019,0-.028,0h-7l-.25,1-.75,3h-1l-.75-3-.25-1h-6.962l1.422,1,4.576,3.22-.47.882L166,112.6l-.967-.368-.03-.259c0,.01,0,.019,0,.029v4l1,.143,6,.857v1l-6,.857L165,119v4c0,.03.008.059.009.09l.024-.236.967-.37,6.566-2.5.47.883L168.579,124l-1.422,1H174l.25-1,.75-3h1l.75,3,.25,1h6.913l-1.421-1-4.459-3.136.47-.883,6.5,2.477,1,.382V119l-1-.143L179,118v-1ZM175.5,120a2.5,2.5,0,1,1,2.5-2.5A2.5,2.5,0,0,1,175.5,120Z" style="fill:#e25950"/><path d="M198.006,110A2,2,0,0,0,196,111.992v11.016A1.992,1.992,0,0,0,197.992,125H203V110Z" style="fill:#24b47e"/><path d="M210,110v15h4.994A2,2,0,0,0,217,123.008V111.992A1.992,1.992,0,0,0,215.008,110H210Z" style="fill:#e25950"/><path d="M203,110h7v15h-7Z" style="fill:#fcd669"/><path d="M228.995,110a2,2,0,0,0-2,2v3h21v-3a2.006,2.006,0,0,0-1.995-2Z" style="fill:#fcd669"/><path d="M227,115h21v5H227Z" style="fill:#24b47e"/><path d="M227,120v3a2.006,2.006,0,0,0,1.995,2H246a2,2,0,0,0,2-2v-3Z" style="fill:#e25950"/><path d="M241.633,116l-2.625.006a.364.364,0,0,1-.347-.253l-.813-2.5a.364.364,0,0,0-.7,0l-.811,2.5a.364.364,0,0,1-.347.253h-2.626a.364.364,0,0,0-.215.661l2.124,1.544a.364.364,0,0,1,.132.409l-.81,2.5a.364.364,0,0,0,.562.41l2.124-1.426a.364.364,0,0,1,.43,0l2.125,1.425a.364.364,0,0,0,.563-.409l-.813-2.5a.364.364,0,0,1,.132-.41l2.125-1.543a.364.364,0,0,0,.134-.409.37.37,0,0,0-.35-.257Z" style="fill:#fff"/><path d="M277,125H260a2,2,0,0,1-2-2V112a2,2,0,0,1,2-2h17a2,2,0,0,1,2,2v11A2,2,0,0,1,277,125Zm1-13a1,1,0,0,0-1-1H260a1,1,0,0,0-1,1v11a1,1,0,0,0,1,1h17a1,1,0,0,0,1-1Z" style="fill:#8898aa;opacity:0.20000000298023224;isolation:isolate"/><path d="M268,110v15h9.008A1.993,1.993,0,0,0,279,123.008V111.992A2,2,0,0,0,277.008,110Z" style="fill:#e25950"/><path d="M264,114h2v2h-2v2h-2v-2h-2v-2h2v-2h2Z" style="fill:#9c9b9a;fill-opacity:0.5"/><path d="M295,110h9v15h-9Z" style="fill:#f6f9fc"/><path d="M295,125v-1h9v1Zm0-15h9v1h-9Z" style="fill:#8898aa;opacity:0.10000000149011612;isolation:isolate"/><path d="M291,110h5v15h-5a2,2,0,0,1-2-2V112A2,2,0,0,1,291,110Z" style="fill:#24b47e"/><path d="M308,125h-5V110h5a2,2,0,0,1,2,2v11A2,2,0,0,1,308,125Z" style="fill:#e25950"/><path d="M297.575,118a1.913,1.913,0,0,0,3.827,0h.852l0,.014a2.753,2.753,0,0,1-5.505.1q0-.052,0-.1l0-.014Z" style="fill:#24b47e"/><path d="M299.5,116a1.5,1.5,0,1,1-1.5,1.5A1.5,1.5,0,0,1,299.5,116Z" style="fill:#b5562b"/><path d="M339,125H322a2,2,0,0,1-2-2v-7h8v-6h11a2,2,0,0,1,2,2v11A2,2,0,0,1,339,125Z" style="fill:#e25950"/><path d="M320,121h21v1H320Zm0-2h21v1H320Zm0-2h21v1H320Zm8-2h13v1H328Zm0-2h13v1H328Zm0-2h12.723a1.987,1.987,0,0,1,.277,1H328Zm12.723,13H320.277a1.986,1.986,0,0,1-.277-1h21A1.987,1.987,0,0,1,340.723,124Z" style="fill:#f6f9fc"/><path d="M339,125H322a2,2,0,0,1-2-2v-7h1v7a1,1,0,0,0,1,1h17a1,1,0,0,0,1-1V112a1,1,0,0,0-1-1H328v-1h11a2,2,0,0,1,2,2v11A2,2,0,0,1,339,125Z" style="fill:#e25950;opacity:0.20000000298023224;isolation:isolate"/><path d="M330,110h-8a2,2,0,0,0-2,2v8h10Z" style="fill:#555abf"/><path d="M326.5,117.75a2.75,2.75,0,1,1,1.84-4.75,3.5,3.5,0,1,0-2.84,5.5,3.46,3.46,0,0,0,2.84-1.5A2.73,2.73,0,0,1,326.5,117.75Z" style="fill:#fcd669"/><circle cx="327.5" cy="115" r="1" style="fill:#fcd669"/><path d="M354,125h3l15-10v-2Zm12-15-15,10v2l18-12Z" style="fill:#f6f9fc"/><path d="M369,110l-18,12a3,3,0,0,0,3,3l18-12A3,3,0,0,0,369,110Z" style="fill:#e25950"/><path d="M354,110a3,3,0,0,0-3,3v7l15-10Zm-1,4v-2h2v2Z" style="fill:#43458b"/><path d="M369,125a3,3,0,0,0,3-3v-7l-15,10Z" style="fill:#24b47e"/><path d="M353,112h2v2h-2Z" style="fill:#fcd669"/><path d="M383.995,110A2,2,0,0,0,382,112v3h21v-3a2.006,2.006,0,0,0-1.995-2Z" style="fill:#e25950"/><path d="M382,115h21v5H382Z" style="fill:#fff"/><path d="M382,120v3a2.006,2.006,0,0,0,1.995,2h17.01A2,2,0,0,0,403,123v-3Z" style="fill:#24b47e"/><circle cx="392.5" cy="117.5" r="1.5" style="fill:#e25950"/><path d="M382,115h1v5h-1Zm20,0h1v5h-1Z" style="fill:#eaeef3"/><path d="M415.006,110A2,2,0,0,0,413,111.992v11.016A1.992,1.992,0,0,0,414.992,125H420V110ZM427,110v15h4.994A2,2,0,0,0,434,123.008V111.992A1.992,1.992,0,0,0,432.008,110H427Z" style="fill:#24b47e"/><path d="M420,110h7v15h-7Z" style="fill:#f6f9fc"/><path d="M420,125v-1h7v1Zm0-14v-1h7v1Z" style="fill:#eaeef3"/><path d="M445.995,110A2,2,0,0,0,444,112v3h21v-3a2.006,2.006,0,0,0-1.995-2Z" style="fill:#43458b"/><path d="M444,115h21v5H444Z" style="fill:#fff"/><path d="M444,120v3a2.006,2.006,0,0,0,1.995,2h17.01A2,2,0,0,0,465,123v-3Z" style="fill:#43458b"/><path d="M454.5,119a1.5,1.5,0,1,1,1.5-1.5A1.5,1.5,0,0,1,454.5,119Zm0-2a.5.5,0,1,0,.5.5A.5.5,0,0,0,454.5,117Z" style="fill:#fcd669"/><path d="M444,115h1v5h-1Zm20,0h1v5h-1Z" style="fill:#eaeef3"/><path d="M475,114h21v7H475Z" style="fill:#f6f9fc"/><path d="M495,121v-7h1v7Zm-20-7h1v7h-1Z" style="fill:#8898aa;opacity:0.10000000149011612;isolation:isolate"/><path d="M496,112v3H475v-3a2,2,0,0,1,2-2h17A2,2,0,0,1,496,112Z" style="fill:#e25950"/><path d="M475,123v-3h21v3a2,2,0,0,1-2,2H477A2,2,0,0,1,475,123Z" style="fill:#6772e5"/><path d="M508,110h17a2,2,0,0,1,2,2v11a2,2,0,0,1-2,2H508a2,2,0,0,1-2-2V112A2,2,0,0,1,508,110Z" style="fill:#e25950"/><path d="M527,119H515v6h-3v-6h-6v-3h6v-6h3v6h12Z" style="fill:#f6f9fc"/><path d="M526,119v-3h1v3Zm-14,5h3v1h-3Zm0-14h3v1h-3Zm-6,6h1v3h-1Z" style="fill:#555abf;opacity:0.10000000149011612;isolation:isolate"/><path d="M527,118H514v7h-1v-7h-7v-1h7v-7h1v7h13Z" style="fill:#555abf"/><path d="M12,135H29a2,2,0,0,1,2,2v11a2,2,0,0,1-2,2H12a2,2,0,0,1-2-2V137A2,2,0,0,1,12,135Z" style="fill:#43458b"/><path d="M10,140.664l3.5-2.4h0l5.425,3.722H17.159l-3.659-2.51-3.5,2.4Zm9-5.569v1.213l-3.5,2.4h0l-4.758-3.264A1.983,1.983,0,0,1,11.862,135l3.638,2.5Z" style="fill:#f6f9fc"/><path d="M18.909,142l-3.659-2.51L11.591,142H10v-.121l5.249-3.6h0L19,140.85V142Zm-5.158-3.278h0l-3.6-2.47a1.99,1.99,0,0,1,.6-.8l3,2.059L17.409,135H19v.121Z" style="fill:#e25950"/><path d="M19,139.625H15.625V142h-2.25v-2.375H10v-2.25h3.375V135h2.25v2.375H19Z" style="fill:#f6f9fc"/><path d="M19,139H15v3H14v-3H10v-1h4v-3h1v3h4Z" style="fill:#e25950"/><path d="M26.22,141.44a1.22,1.22,0,1,1,1.186-1.254v.034a1.22,1.22,0,0,1-1.185,1.22Zm-2-2a1.22,1.22,0,1,1,1.186-1.254v.034A1.22,1.22,0,0,1,24.22,139.44Zm-.78,1.781a1.22,1.22,0,1,1-1.254-1.186h.034A1.22,1.22,0,0,1,23.44,141.221ZM24.22,145a1.22,1.22,0,1,1-1.184,1.255v-.035A1.22,1.22,0,0,1,24.22,145Z" style="fill:#f6f9fc"/><path d="M26.188,140.874a.687.687,0,1,1,.686-.688.687.687,0,0,1-.686.688Zm-2,6a.688.688,0,1,1,.687-.689h0a.688.688,0,0,1-.688.688h0Zm0-8a.687.687,0,1,1,.685-.689h0A.687.687,0,0,1,24.188,138.874Zm-2,3a.688.688,0,1,1,.617-.336A.688.688,0,0,1,22.188,141.874Z" style="fill:#e25950"/><path d="M45,135v6H62v-4a2,2,0,0,0-1.994-2H45Z" style="fill:#f6f9fc"/><path d="M61.5,142.5V137a1.5,1.5,0,0,0-1.495-1.5H43" style="fill:none;stroke:#eaeef3"/><path d="M46,140v-5H43.005A2,2,0,0,0,41,136.992v11.016A2,2,0,0,0,43,150h3v-5H62v-5Z" style="fill:#e25950"/><path d="M46,145v5H60.006A2,2,0,0,0,62,148v-3Z" style="fill:#24b47e"/><path d="M43.5,137a.5.5,0,1,1-.5.5A.5.5,0,0,1,43.5,137Z" style="fill:#fff"/><path d="M73.992,135A1.99,1.99,0,0,0,72,136.988V143H83v-8Z" style="fill:#f7fafc"/><path d="M72.5,142.5h10v-7H73.992a1.49,1.49,0,0,0-1.492,1.488V142.5Z" style="fill:none;stroke:#e6e9ed"/><path d="M82,142v8h9.008A1.99,1.99,0,0,0,93,148.012V142Z" style="fill:#f7fafc"/><path d="M82.5,142.5v7h8.508a1.49,1.49,0,0,0,1.492-1.488V142.5Z" style="fill:none;stroke:#e6e9ed"/><path d="M89.792,145.318l-1.153,0a.16.16,0,0,1-.152-.11l-.357-1.1a.16.16,0,0,0-.305,0l-.357,1.1a.16.16,0,0,1-.152.11H86.162a.16.16,0,0,0-.094.29l.933.679a.16.16,0,0,1,.058.18l-.356,1.1a.16.16,0,0,0,.247.18l.933-.626a.16.16,0,0,1,.188,0l.934.626a.16.16,0,0,0,.247-.18l-.357-1.1a.16.16,0,0,1,.058-.18l.933-.678a.16.16,0,0,0,.06-.18.163.163,0,0,0-.154-.112Z" style="fill:#e25950"/><path d="M78.747,138.347l-1.14,0a.158.158,0,0,1-.15-.11l-.353-1.084a.158.158,0,0,0-.3,0l-.351,1.085a.158.158,0,0,1-.151.11H75.16a.158.158,0,0,0-.093.287l.921.67a.158.158,0,0,1,.058.178l-.352,1.084a.158.158,0,0,0,.245.177l.921-.619a.158.158,0,0,1,.186,0l.923.619a.158.158,0,0,0,.244-.177l-.353-1.086a.158.158,0,0,1,.058-.178l.922-.67a.158.158,0,0,0,.058-.178.16.16,0,0,0-.15-.111ZM72,143v4.994A2,2,0,0,0,73.992,150H83v-7Z" style="fill:#217ab7"/><path d="M82,135v8H93v-6a2,2,0,0,0-1.992-2Z" style="fill:#e25950"/><path d="M105.006,135A2,2,0,0,0,103,136.992v11.016A1.992,1.992,0,0,0,104.992,150H110V135ZM117,135v15h4.994A2,2,0,0,0,124,148.008V136.992A1.992,1.992,0,0,0,122.008,135H117Z" style="fill:#e25950"/><path d="M110,135h7v15h-7Z" style="fill:#f6f9fc"/><path d="M110,150v-1h7v1Zm0-14v-1h7v1Z" style="fill:#eaeef3"/><path d="M155,136.992A2,2,0,0,0,153.005,135H136a1.979,1.979,0,0,0-1.3.495l19.615,14.01a1.978,1.978,0,0,0,.692-1.5Z" style="fill:#e25950"/><path d="M134.693,135.495a1.978,1.978,0,0,0-.693,1.5v11.016A2,2,0,0,0,135.995,150H153a1.979,1.979,0,0,0,1.3-.495Z"/><path d="M140.5,143a.5.5,0,1,1-.5.5A.5.5,0,0,1,140.5,143Z" style="fill:#fff;fill-opacity:0.800000011920929"/><path d="M139.5,145a.5.5,0,1,1-.5.5A.5.5,0,0,1,139.5,145Z" style="fill:#fff;fill-opacity:0.30000001192092896"/><path d="M137.5,144a.5.5,0,1,1-.5.5A.5.5,0,0,1,137.5,144Z" style="fill:#fff;fill-opacity:0.8999999761581421"/><path d="M138.5,147a.5.5,0,1,1-.5.5A.5.5,0,0,1,138.5,147Z" style="fill:#fff;fill-opacity:0.8999999761581421"/><path d="M138.5,141a.5.5,0,1,1-.5.5A.5.5,0,0,1,138.5,141Z" style="fill:#fff"/><path d="M149,139v-1.292c0-.557.353-.75.8-.418l2.892,2.12c.444.326.356.59-.2.59H150v1.506c0,.536-.35.721-.784.384l-2.932-2.28c-.43-.335-.337-.61.215-.61Z" style="fill:#fac92e"/><path d="M166.418,135.1,176,142.5l-9.582,7.4A1.994,1.994,0,0,1,165,148V137A1.994,1.994,0,0,1,166.418,135.1Z" style="fill:#f6f9fc"/><path d="M167,136a1,1,0,0,0-1,1v11a1,1,0,0,0,1,1h1v1h-1a2,2,0,0,1-2-2V137a2,2,0,0,1,2-2h1v1Z" style="fill:#8898aa;opacity:0.20000000298023224;isolation:isolate"/><path d="M184,150H167a1.982,1.982,0,0,1-1.291-.484L176,142.5l-.733-.5H186v6A2,2,0,0,1,184,150Z" style="fill:#e25950"/><path d="M165.709,135.484A1.982,1.982,0,0,1,167,135h17a2,2,0,0,1,2,2v5.5H176Z" style="fill:#555abf"/><path d="M169.507,140a2.5,2.5,0,1,1-2.493,2.511V142.5a2.5,2.5,0,0,1,2.492-2.5Z" style="fill:#f5be58"/><path d="M198,135h17a2,2,0,0,1,2,2v11a2,2,0,0,1-2,2H198a2,2,0,0,1-2-2V137A2,2,0,0,1,198,135Z" style="fill:#f6f9fc"/><path d="M215,150H198a2,2,0,0,1-2-2V137a2,2,0,0,1,2-2h17a2,2,0,0,1,2,2v11A2,2,0,0,1,215,150Zm1-13a1,1,0,0,0-1-1H198a1,1,0,0,0-1,1v11a1,1,0,0,0,1,1h17a1,1,0,0,0,1-1Z" style="fill:#8898aa;opacity:0.20000000298023224;isolation:isolate"/><path d="M202,135v15h13.008A1.993,1.993,0,0,0,217,148.008V136.992A1.993,1.993,0,0,0,215.008,135Z" style="fill:#24b47e"/><path d="M208.937,137a4.206,4.206,0,0,0-2.071,3.566,4.488,4.488,0,0,0,4.664,4.29,4.946,4.946,0,0,0,2.47-.65A4.73,4.73,0,0,1,209.747,147,4.9,4.9,0,0,1,205,141.963,4.962,4.962,0,0,1,208.937,137Z" style="fill:#fff"/><circle cx="212" cy="140" r="1" style="fill:#fff"/><path d="M228,135.89h19v6.354H228Z" style="fill:#fff"/><path d="M227.5,142.5h20V137a1.5,1.5,0,0,0-1.495-1.5H229a1.491,1.491,0,0,0-1.5,1.487V142.5Z" style="fill:none;stroke:#dfe5eb"/><path d="M227,142v6a2,2,0,0,0,1.995,2H246a1.991,1.991,0,0,0,2-1.987V142Z" style="fill:#e25950"/><path d="M260,135a2,2,0,0,0-2,2v3h21v-3a2,2,0,0,0-2-2Z" style="fill:#e25950"/><path d="M258,140h21v5H258Z" style="fill:#f6f9fc"/><path d="M278,140h1v5h-1Z" style="fill:#eaeef3"/><path d="M258,145v3a2,2,0,0,0,2,2h17a2,2,0,0,0,2-2v-3Z" style="fill:#e25950"/><path d="M260,150l8-7.5-8-7.5a2,2,0,0,0-2,2v11A2,2,0,0,0,260,150Z" style="fill:#555abf"/><path d="M261.5,140.29l.65,1.32,1.45.21-1.05,1.02.25,1.45-1.3-.68-1.3.68.25-1.45-1.05-1.02,1.45-.21.65-1.32Z" style="fill:#f6f9fc"/><path d="M291,135a2,2,0,0,0-2,2v3h21v-3a2,2,0,0,0-2-2Z"/><path d="M289,140h21v5H289Z" style="fill:#f6f9fc"/><path d="M309,140h1v5h-1Z" style="fill:#eaeef3"/><path d="M289,145v3a2,2,0,0,0,2,2h17a2,2,0,0,0,2-2v-3Z" style="fill:#0a9362"/><path d="M291,150l8-7.5-8-7.5a2,2,0,0,0-2,2v11A2,2,0,0,0,291,150Z" style="fill:#e25950"/><path d="M328,150h-6a2,2,0,0,1-2-2V137a2,2,0,0,1,2-2h6Z" style="fill:#24b47e"/><path d="M339,150H327V135h12a2,2,0,0,1,2,2v11A2,2,0,0,1,339,150Z" style="fill:#e25950"/><path d="M330,142.5a3.531,3.531,0,1,0-3.53,3.532A3.531,3.531,0,0,0,330,142.5Z" style="fill:#fcd669"/><path d="M326.425,140A2.5,2.5,0,1,1,324,142.575V142.5A2.5,2.5,0,0,1,326.425,140Z" style="fill:#e25950"/><path d="M325.5,141h2v2.031a1,1,0,0,1-2,0Z" style="fill:#f6f9fc"/><path d="M352.995,135A2,2,0,0,0,351,137v3h21v-2.995A2.006,2.006,0,0,0,370.005,135Z" style="fill:#e25950"/><path d="M351,140h21v5H351Z" style="fill:#fff"/><path d="M351,145v2.995A2.006,2.006,0,0,0,352.995,150h17.01A2,2,0,0,0,372,148v-3Z" style="fill:#43458b"/><path d="M361.5,144a1.5,1.5,0,1,1,1.5-1.5A1.5,1.5,0,0,1,361.5,144Zm0-2a.5.5,0,1,0,.5.5A.5.5,0,0,0,361.5,142Z" style="fill:#e25950"/><path d="M351,140h1v5h-1Zm20,0h1v5h-1Z" style="fill:#eaeef3"/><path d="M384,135h17a2,2,0,0,1,2,2v11a2,2,0,0,1-2,2H384a2,2,0,0,1-2-2V137A2,2,0,0,1,384,135Z" style="fill:#f6f9fc"/><path d="M401,150H384a2,2,0,0,1-2-2V137a2,2,0,0,1,2-2h17a2,2,0,0,1,2,2v11A2,2,0,0,1,401,150Zm1-13a1,1,0,0,0-1-1H384a1,1,0,0,0-1,1v11a1,1,0,0,0,1,1h17a1,1,0,0,0,1-1Z" style="fill:#8898aa;opacity:0.20000000298023224;isolation:isolate"/><path d="M391,150h-2l-1-.5,2-1-2-1,2-1-2-1,2-1-2-1,2-1-2-1,2-1-2-1,2-1-2-1,2-1-2-1,1-.5h11.991A2,2,0,0,1,403,136.992v11.016A2,2,0,0,1,400.991,150Z" style="fill:#b1372f"/><path d="M432,150H416.433l6.957-15H432a2,2,0,0,1,2,2v11A2,2,0,0,1,432,150Z" style="fill:#6772e5"/><path d="M417.438,150H415a2,2,0,0,1-2-2V137a2,2,0,0,1,2-2h11.1Z" style="fill:#6772e5"/><path d="M420,146l6.856-1.453V139L420,140.453Z" style="fill:#fff"/><path d="M446.006,135A2,2,0,0,0,444,136.992v11.016A1.992,1.992,0,0,0,445.992,150H451V135Z" style="fill:#43458b"/><path d="M458,135v15h4.994A2,2,0,0,0,465,148.008V136.992A1.992,1.992,0,0,0,463.008,135H458Z" style="fill:#e25950"/><path d="M451,135h7v15h-7Z" style="fill:#fcd669"/><path d="M476.995,135A2,2,0,0,0,475,137v4h21v-4a2,2,0,0,0-1.995-2Z" style="fill:#f6f9fc"/><path d="M475.5,140.5h20V137a1.5,1.5,0,0,0-1.495-1.5h-17.01A1.5,1.5,0,0,0,475.5,137Z" style="fill:none;stroke:#dfe5eb"/><path d="M475,140h21v5H475Z" style="fill:#43458b"/><path d="M475,145v2.995A2.006,2.006,0,0,0,476.995,150h17.01A2,2,0,0,0,496,148v-3Z" style="fill:#e25950"/><path d="M507.995,135a1.993,1.993,0,0,0-2,1.991c0,.005,0,.01,0,.015V142h21v-4.994A2.006,2.006,0,0,0,525.005,135Z" style="fill:#45b2e8"/><path d="M506,142h21v4H506Z" style="fill:#fcd669"/><path d="M506,146v2a2,2,0,0,0,1.995,2h17.01A1.992,1.992,0,0,0,527,148.011V146Z" style="fill:#24b47e"/><circle cx="523.5" cy="138.5" r="1.5" style="fill:#fcd669"/><rect x="10" y="160" width="21" height="15" rx="2" ry="2" style="fill:#24b47e"/><path d="M25,170h1l-.5,1H25v1l-1-.5V171H17.492L15,170h9v-.5l1-.5Z" style="fill:#fff"/><path d="M24,164l1.657.146L26,165v2H25l-1.492-.528L23,167v-3Zm-3.283.375L22,164v3l-1.283-.488L19,167l.172-1.858L19,164ZM17,164l1,1v2l-.764-.343L16,167l-.994-.006.183-2.917Z" style="fill:#fff"/><path d="M43,160H60a2,2,0,0,1,2,2v11a2,2,0,0,1-2,2H43a2,2,0,0,1-2-2V162A2,2,0,0,1,43,160Z" style="fill:#217ab7"/><path d="M62,169H50v6H47v-6H41v-3h6v-6h3v6H62Z" style="fill:#fcd669"/><path d="M74,160a1.991,1.991,0,0,0-2,1.987V168H93v-6a2,2,0,0,0-2-2Z" style="fill:#ea2c3f"/><path d="M93,167v6a2,2,0,0,1-2,2H74a2,2,0,0,1-2-2v-6Z" style="fill:#f6f9fc"/><path d="M91,175H74a2,2,0,0,1-2-2v-6h1v6a1,1,0,0,0,1,1H91a1,1,0,0,0,1-1v-6h1v6A2,2,0,0,1,91,175Z" style="fill:#8898aa;opacity:0.20000000298023224;isolation:isolate"/><path d="M72,168v-6a2,2,0,0,1,2-2H91a2,2,0,0,1,2,2v6Z" style="fill:#e25950"/><path d="M76.368,163.96a2.367,2.367,0,0,0,2.354,2.367,2.96,2.96,0,1,1,0-4.734A2.367,2.367,0,0,0,76.368,163.96Zm6.194.415a.594.594,0,1,1,.57-.618q0,.012,0,.025A.594.594,0,0,1,82.562,164.375Zm-1.5-1.187a.594.594,0,1,1,.6-.593.594.594,0,0,1-.6.593Zm-.281,2.375a.594.594,0,1,1-.594-.594h0A.594.594,0,0,1,80.781,165.563Zm-1.187-1.188a.594.594,0,1,1,.594-.594h0A.594.594,0,0,1,79.594,164.375Zm2.375.594a.593.593,0,1,1-.593.593.593.593,0,0,1,.593-.593Z" style="fill:#f6f9fc"/><path d="M105,160a2,2,0,0,0-2,2v3h21v-3a2,2,0,0,0-2-2Z" style="fill:#f6f9fc"/><path d="M103,165h21v5H103Z" style="fill:#555abf"/><path d="M103,170v3a2,2,0,0,0,2,2h17a2,2,0,0,0,2-2v-3Z" style="fill:#e25950"/><path d="M112,164v4.5a2.5,2.5,0,0,1-5,0V164h5m1-1h-7v5.5a3.5,3.5,0,0,0,7,0Z" style="fill:#e25950"/><path d="M107,164h5v4.5a2.5,2.5,0,0,1-5,0Z" style="fill:#555abf"/><path d="M109.5,171a2.5,2.5,0,0,1-2.5-2.5l2.5-1.5,2.5,1.5A2.5,2.5,0,0,1,109.5,171Z" style="fill:#f6f9fc"/><circle cx="108.5" cy="165.5" r="0.5" style="fill:#f6f9fc"/><circle cx="110.5" cy="165.5" r="0.5" style="fill:#f6f9fc"/><path d="M122,161a1,1,0,0,1,1,1v3h1v-3a2,2,0,0,0-2-2H105a2,2,0,0,0-2,2v3h1v-3a1,1,0,0,1,1-1h17" style="fill:#eaeef3"/><path d="M136,160a2,2,0,0,0-2,2v3h21v-3a2,2,0,0,0-2-2Z" style="fill:#f6f9fc"/><path d="M134,165h21v5H134Z" style="fill:#555abf"/><path d="M134,170v3a2,2,0,0,0,2,2h17a2,2,0,0,0,2-2v-3Z" style="fill:#e25950"/><path d="M137,163h7v5.5a3.5,3.5,0,0,1-7,0Z" style="fill:#f6f9fc"/><path d="M138,164h5v4.5a2.5,2.5,0,0,1-5,0Z" style="fill:#ed1c24"/><path d="M140.5,171a2.5,2.5,0,0,1-2.5-2.5h5A2.5,2.5,0,0,1,140.5,171Z" style="fill:#555abf"/><path d="M153,161a1,1,0,0,1,1,1v3h1v-3a2,2,0,0,0-2-2H136a2,2,0,0,0-2,2v3h1v-3a1,1,0,0,1,1-1h17" style="fill:#eaeef3"/><path d="M140,164.5h1v4h-1Z" style="fill:#f6f9fc"/><path d="M139,165h3v1h-3Zm-.5,2h4v1h-4Z" style="fill:#f6f9fc"/><path d="M166.995,160a2,2,0,0,0-2,2v3h21v-2.995A2.006,2.006,0,0,0,184.005,160Z" style="fill:#24b47e"/><path d="M165,165h21v5H165Z" style="fill:#fff"/><path d="M165,170v2.995A2.006,2.006,0,0,0,166.995,175H184a2,2,0,0,0,2-2v-3Z" style="fill:#217ab7"/><path d="M165,165h1v5h-1Zm20,0h1v5h-1Z" style="fill:#eaeef3"/><path d="M198.006,160A2,2,0,0,0,196,161.992v11.016A1.992,1.992,0,0,0,197.992,175H203V160Z" style="fill:#24b47e"/><path d="M210,160v15h4.994A2,2,0,0,0,217,173.008V161.992A1.992,1.992,0,0,0,215.008,160H210Z" style="fill:#e25950"/><path d="M203,160h7v15h-7Z" style="fill:#fcd669"/><path d="M208.8,166.667l-1.458,0a.2.2,0,0,1-.193-.14l-.452-1.387a.2.2,0,0,0-.386,0l-.45,1.386a.2.2,0,0,1-.193.14H204.2a.2.2,0,0,0-.118.368l1.18.857a.2.2,0,0,1,.073.228l-.45,1.387a.2.2,0,0,0,.313.227l1.18-.791a.2.2,0,0,1,.238,0l1.18.791a.2.2,0,0,0,.313-.227l-.452-1.387a.2.2,0,0,1,.074-.228l1.18-.857a.2.2,0,0,0,.075-.227.205.205,0,0,0-.194-.143Z" style="fill:#24b47e"/><rect x="227" y="160" width="21" height="15" rx="2" ry="2" style="fill:#217ab7"/><path d="M241.633,166l-2.625.006a.364.364,0,0,1-.347-.253l-.813-2.5a.364.364,0,0,0-.7,0l-.811,2.5a.364.364,0,0,1-.347.253h-2.626a.364.364,0,0,0-.215.661l2.124,1.544a.364.364,0,0,1,.132.409l-.81,2.5a.364.364,0,0,0,.562.41l2.124-1.426a.364.364,0,0,1,.43,0l2.125,1.425a.364.364,0,0,0,.563-.409l-.813-2.5a.364.364,0,0,1,.132-.41l2.125-1.543a.364.364,0,0,0,.134-.409.37.37,0,0,0-.35-.257Z" style="fill:#fff"/><path d="M259.995,160A2,2,0,0,0,258,162v3h21v-2.995A2.006,2.006,0,0,0,277.005,160Z" style="fill:#555abf"/><path d="M258,165h21v5H258Z" style="fill:#f6f9fc"/><path d="M258,165h1v5h-1Zm20,0h1v5h-1Z" style="fill:#eaeef3"/><path d="M258,170v2.995A2.006,2.006,0,0,0,259.995,175h17.01A2,2,0,0,0,279,173v-3Z" style="fill:#555abf"/><path d="M268.5,169a1.5,1.5,0,1,1,1.5-1.5A1.5,1.5,0,0,1,268.5,169Zm0-2a.5.5,0,1,0,.5.5A.5.5,0,0,0,268.5,167Z" style="fill:#efcf57"/><path d="M291.006,160A2,2,0,0,0,289,161.992v11.016A1.992,1.992,0,0,0,290.992,175H296V160Z" style="fill:#43458b"/><path d="M303,160v15h4.994A2,2,0,0,0,310,173.008V161.992A1.992,1.992,0,0,0,308.008,160H303Z" style="fill:#e25950"/><path d="M296,160h7v15h-7Z" style="fill:#fcd669"/><path d="M341,163H320v-1a2,2,0,0,1,2-2h17a2,2,0,0,1,2,2Z" style="fill:#e25950"/><path d="M320,163h21v2H320Z" style="fill:#f9f9f9"/><path d="M320,163h1v2h-1Z" style="fill:#eaeef3"/><path d="M320,170h21v2H320Z" style="fill:#f9f9f9"/><path d="M320,172h21v1a2,2,0,0,1-2,2H322a2,2,0,0,1-2-2Z" style="fill:#e25950"/><path d="M320,165h21v5H320Z" style="fill:#555abf"/><path d="M320,170h1v2h-1Zm20-7h1v2h-1Zm0,7h1v2h-1Z" style="fill:#eaeef3"/><path d="M352.995,160A2,2,0,0,0,351,162v3h21v-2.995A2.006,2.006,0,0,0,370.005,160Z" style="fill:#ca0814"/><path d="M351,165h21v5H351Z" style="fill:#fff"/><path d="M351,170v2.995A2.006,2.006,0,0,0,352.995,175h17.01A2,2,0,0,0,372,173v-3Z" style="fill:#24b47e"/><path d="M357,168.5a.5.5,0,1,1,.5.5A.5.5,0,0,1,357,168.5Zm2-1a.5.5,0,1,1,.5.5A.5.5,0,0,1,359,167.5Zm2-1a.5.5,0,1,1,.5.5A.5.5,0,0,1,361,166.5Zm2,1a.5.5,0,1,1,.5.5A.5.5,0,0,1,363,167.5Zm2,1a.5.5,0,1,1,.5.5A.5.5,0,0,1,365,168.5Zm-4,0a.5.5,0,1,1,.5.5A.5.5,0,0,1,361,168.5Z"/><path d="M357,168.5a.5.5,0,1,1,.5.5A.5.5,0,0,1,357,168.5Zm2-1a.5.5,0,1,1,.5.5A.5.5,0,0,1,359,167.5Zm2-1a.5.5,0,1,1,.5.5A.5.5,0,0,1,361,166.5Zm2,1a.5.5,0,1,1,.5.5A.5.5,0,0,1,363,167.5Zm2,1a.5.5,0,1,1,.5.5A.5.5,0,0,1,365,168.5Zm-4,0a.5.5,0,1,1,.5.5A.5.5,0,0,1,361,168.5Z" style="fill:#fcd669"/><path d="M351,165h1v5h-1Zm20,0h1v5h-1Z" style="fill:#eaeef3"/><path d="M401,160H384a1.99,1.99,0,0,0-1.438.615.813.813,0,0,1,.2.116l.643.528L395,167.5l-11.59,6.241-.642.528a.813.813,0,0,1-.206.116A1.99,1.99,0,0,0,384,175h17a2,2,0,0,0,2-2V162A2,2,0,0,0,401,160Z" style="fill:#e25950"/><path d="M383.41,173.741,395,167.5l-11.59-6.241L391,167.5Z" style="fill:#fcd669"/><path d="M382.873,160.97l.537.289-.643-.528a.813.813,0,0,0-.206-.116,2.007,2.007,0,0,0-.238.3.623.623,0,0,1,.55.054Zm.537,12.771-.537.289a.623.623,0,0,1-.55.054,2,2,0,0,0,.239.3.813.813,0,0,0,.2-.115Z"/><path d="M382.873,174.03l.537-.289L391,167.5l-7.59-6.241-.537-.289a.623.623,0,0,0-.55-.054A1.987,1.987,0,0,0,382,162v11a1.986,1.986,0,0,0,.323,1.084A.623.623,0,0,0,382.873,174.03ZM385.5,166a1.5,1.5,0,1,1-1.5,1.5A1.5,1.5,0,0,1,385.5,166Z"/><circle cx="385.5" cy="167.5" r="1.5" style="fill:#f7fafc"/><rect x="413" y="160" width="21" height="15" rx="2" ry="2" style="fill:#e25950"/><path d="M422.431,163.1a4.359,4.359,0,0,0,.673,8.61,4.5,4.5,0,1,1-.673-8.61Z" style="fill:#fff"/><circle cx="424.5" cy="167.5" r="1.5" style="fill:#fff"/><rect x="444" y="160" width="21" height="15" rx="2" ry="2" style="fill:#e25950"/><path d="M446,160h7v9h-9v-7A2,2,0,0,1,446,160Z" style="fill:#555abf"/><circle cx="448.5" cy="164.5" r="2.5" style="fill:#fff"/><path d="M481,175l15-10v-2l-18,12Zm9-15-15,10v2l18-12Z" style="fill:#fcd669"/><path d="M478,160h-1.008A1.99,1.99,0,0,0,475,161.988V170l15-10Z" style="fill:#24b47e"/><path d="M481,175h13.008A2,2,0,0,0,496,173v-8Z" style="fill:#45b2e8"/><path d="M494,160h-1l-18,12v1a2,2,0,0,0,2,2h1l18-12v-1A2,2,0,0,0,494,160Z"/><path d="M507.995,160A1.991,1.991,0,0,0,506,161.987V168h21v-6a2,2,0,0,0-1.995-2Z" style="fill:#45b2e8"/><path d="M506,168v4.994A2.006,2.006,0,0,0,507.995,175h17.01a1.993,1.993,0,0,0,2-1.991V168Z" style="fill:#fcd669"/><path d="M29,200H12a2,2,0,0,1-2-2v-7h8v-6H29a2,2,0,0,1,2,2v11A2,2,0,0,1,29,200Z" style="fill:#e25950"/><path d="M10,196H31v1H10Zm0-2H31v1H10Zm0-2H31v1H10Zm8-2H31v1H18Zm0-2H31v1H18Zm0-2H30.723A1.987,1.987,0,0,1,31,187H18Zm12.723,13H10.277A1.986,1.986,0,0,1,10,198H31A1.987,1.987,0,0,1,30.723,199Z" style="fill:#f6f9fc"/><path d="M29,200H12a2,2,0,0,1-2-2v-7h1v7a1,1,0,0,0,1,1H29a1,1,0,0,0,1-1V187a1,1,0,0,0-1-1H18v-1H29a2,2,0,0,1,2,2v11A2,2,0,0,1,29,200Z" style="fill:#e25950;opacity:0.20000000298023224;isolation:isolate"/><path d="M10,192v-5a2,2,0,0,1,2-2h7v7Z" style="fill:#43458b"/><path d="M17.73,187.408a.7.7,0,1,1,.675-.729v.026A.7.7,0,0,1,17.73,187.408Zm-.3,1.3a.7.7,0,1,1-.7-.705.7.7,0,0,1,.7.705Zm-1.7-1.3a.7.7,0,1,1,.676-.73v.026A.7.7,0,0,1,15.73,187.408Zm-.3,1.3a.7.7,0,1,1-.7-.705.7.7,0,0,1,.7.705Zm-1.7-1.3a.7.7,0,1,1,.676-.73v.026A.7.7,0,0,1,13.73,187.408Zm-.3,1.3a.7.7,0,1,1-.7-.705.7.7,0,0,1,.7.705Zm-1.7-1.3a.7.7,0,1,1,.675-.729v.026A.7.7,0,0,1,11.73,187.408Zm0,2.592a.7.7,0,1,1-.678.73q0-.013,0-.027A.7.7,0,0,1,11.73,190Zm2,0a.7.7,0,1,1-.678.73q0-.013,0-.027A.7.7,0,0,1,13.73,190Zm2,0a.7.7,0,1,1-.678.73q0-.013,0-.027A.7.7,0,0,1,15.73,190Zm2,0a.7.7,0,1,1-.678.73q0-.013,0-.027A.7.7,0,0,1,17.73,190Z" style="fill:#fff"/><path d="M19,189.21a.7.7,0,1,1,0-1.011Zm-9-.975a.7.7,0,1,1,.516,1.173h0a.694.694,0,0,1-.516-.234Z" style="fill:#fff;opacity:0.5;isolation:isolate"/><path d="M51,185h9a2,2,0,0,1,2,2v11H51Z" style="fill:#f6f9fc"/><path d="M42,197H61v2H42Z" style="fill:#012b7f"/><path d="M61,186.5h1v11H61Z" style="fill:#eaeef3"/><path d="M43,185h8v12H41V187A2,2,0,0,1,43,185Z" style="fill:#f6f9fc"/><circle cx="45.5" cy="189.5" r="2.5" style="fill:#fcd669"/><path d="M42,193.33H61v2H42Zm8-3.66H61v2H50ZM50,186h9.93A1.07,1.07,0,0,1,61,187.07h0V188H50Z" style="fill:#012b7f"/><path d="M41,188h1v10H41Z" style="fill:#eaeef3"/><path d="M60,186a1,1,0,0,1,1,1v3h1v-3a2,2,0,0,0-2-2H43a2,2,0,0,0-2,2v3h1v-3a1,1,0,0,1,1-1H60m0,13a1,1,0,0,0,1-1v-3h1v3a2,2,0,0,1-2,2H43a2,2,0,0,1-2-2v-3h1v3a1,1,0,0,0,1,1H60" style="fill:#eaeef3"/><path d="M74,185a2,2,0,0,0-2,2v3H93v-2.995A2.006,2.006,0,0,0,91,185Z" style="fill:#fcd669"/><path d="M72,195v2.995A2.006,2.006,0,0,0,74,200h17.01a2,2,0,0,0,2-2v-3Z" style="fill:#e25950"/><path d="M72,190H93v6H72Z" style="fill:#43458b"/><path d="M78,194.5a.5.5,0,1,1,.5.5A.5.5,0,0,1,78,194.5Zm1-2a.5.5,0,1,1,.5.5A.5.5,0,0,1,79,192.5Zm3-1a.5.5,0,1,1,.5.5A.5.5,0,0,1,82,191.5Zm3,1a.5.5,0,1,1,.5.5A.5.5,0,0,1,85,192.5Zm1,2a.5.5,0,1,1,.5.5A.5.5,0,0,1,86,194.5Z" style="fill:#fff"/><rect x="103" y="185" width="21" height="15" rx="2" ry="2" style="fill:#e25950"/><path d="M117.633,191l-2.625.006a.364.364,0,0,1-.347-.253l-.813-2.5a.364.364,0,0,0-.695,0l-.811,2.5a.364.364,0,0,1-.347.253h-2.626a.364.364,0,0,0-.215.661l2.124,1.544a.364.364,0,0,1,.132.409l-.81,2.5a.364.364,0,0,0,.562.41l2.124-1.426a.364.364,0,0,1,.43,0l2.125,1.425a.364.364,0,0,0,.563-.409l-.813-2.5a.364.364,0,0,1,.132-.41l2.125-1.543a.364.364,0,0,0,.134-.409.37.37,0,0,0-.35-.257Z" style="fill:#fcd669"/><path d="M153,200H141.9l8.66-15H153a2,2,0,0,1,2,2v11A2,2,0,0,1,153,200Zm-14.562,0H136a2,2,0,0,1-2-2V187a2,2,0,0,1,2-2h11.1Z"/><path d="M166.995,185a2,2,0,0,0-2,2v3h21v-2.995A2.006,2.006,0,0,0,184.005,185Z" style="fill:#e25950"/><path d="M165,190h21v5H165Z" style="fill:#fff"/><path d="M165,195v2.995A2.006,2.006,0,0,0,166.995,200H184a2,2,0,0,0,2-2v-3Z"/><path d="M165,190h1v5h-1Zm20,0h1v5h-1Z" style="fill:#eaeef3"/><path d="M199,185h18v15H199Z" style="fill:#f6f9fc"/><path d="M206.24,189.25H217V187a2,2,0,0,0-2-2H200.29Z" style="fill:#e25950"/><path d="M200.29,200H215a2,2,0,0,0,2-2v-2.25H206.24Z" style="fill:#012b7f"/><path d="M217,195H206l-7,5h-1a2,2,0,0,1-2-2V187a2,2,0,0,1,2-2h1l7,5h11Z" style="fill:#24b47e"/><path d="M196,197v-9l6.5,4.5Z"/><path d="M196.43,187.38l-.43-.29V188l6.5,4.5L196,197v.91l.43-.29,6.5-4.5.89-.62-.89-.62-6.5-4.5Z" style="fill:#fcd669"/><rect width="537" height="210" style="fill:none"/></svg>