<svg width="136" height="173" viewBox="0 0 136 173" xmlns="http://www.w3.org/2000/svg" xmlns:xlink="http://www.w3.org/1999/xlink"><title>Order</title><defs><path id="a" d="M.104 0h57.643v15.147H.104V0z"/><path id="c" d="M.035 0h57.642v15.147H.035V0z"/><path id="e" d="M6 163.95h149.185V0H6z"/></defs><g fill="none" fill-rule="evenodd"><path d="M.161 158c-.215-4-.215-6 0-6 .209 0 42.712 1.889 127.508 5.666a7.842 7.842 0 0 1 7.492 7.834 7.5 7.5 0 0 1-7.5 7.5h-112.5c-8.284 0-15-6.716-15-15z" fill="#6663D8"/><path fill="#8BA4FE" d="M57.473 26.066h4.68V15.25h-4.68z"/><g><g transform="translate(17.889)"><mask id="b" fill="#fff"><use xlink:href="#a"/></mask><path d="M3.57 15.147h50.71a3.476 3.476 0 0 0 3.467-3.466V3.466A3.476 3.476 0 0 0 54.28 0H3.57A3.476 3.476 0 0 0 .104 3.466v8.215c.035 1.906 1.56 3.466 3.466 3.466" fill="#8BA4FE" mask="url(#b)"/></g><path d="M84.194 37.33v115.46c0 6.17-4.991 11.16-11.161 11.16H11.16a11.154 11.154 0 0 1-11.16-11.16V37.33c0-6.17 4.99-11.16 11.16-11.16h61.906c6.136 0 11.127 4.99 11.127 11.16" fill="#8BA4FE"/><path d="M95.948 37.33v81.907c0 6.17-4.992 11.16-11.162 11.16H22.915a11.154 11.154 0 0 1-11.161-11.16V37.33c0-6.17 4.991-11.161 11.161-11.161h61.871c6.17 0 11.162 4.99 11.162 11.16" fill="#ECECFF"/><path d="M87.767 85.947V38.44a3.254 3.254 0 0 0-3.258-3.258h-56.43v54.765h55.688a4 4 0 0 0 4-4z" fill="#6863D8"/><g transform="translate(22.742)"><mask id="d" fill="#fff"><use xlink:href="#c"/></mask><path d="M3.5 15.147h50.711a3.476 3.476 0 0 0 3.466-3.466V3.466A3.476 3.476 0 0 0 54.211 0H3.501A3.476 3.476 0 0 0 .035 3.466v8.215A3.476 3.476 0 0 0 3.5 15.147" fill="#6663D8" mask="url(#d)"/></g><mask id="f" fill="#fff"><use xlink:href="#e"/></mask><path fill="#9FD4FE" mask="url(#f)" d="M59.067 26.066h4.541V15.25h-4.54z"/><path fill="#8BA4FE" mask="url(#f)" d="M27.317 26.066h4.402V15.25h-4.402z"/><path fill="#9FD4FE" mask="url(#f)" d="M28.773 26.066h4.68V15.25h-4.68z"/><path fill="#FEFEFF" mask="url(#f)" d="M76.849 2.565v9.879h-35.32l9.808-9.879z"/><path fill="#F3F3FF" mask="url(#f)" d="M27.317 2.565h24.02l-9.809 9.879H27.317z"/><path d="M25.598 35.147h23.14l-27.14 21.179V39.147a4 4 0 0 1 4-4z" fill="#6863D8" mask="url(#f)"/><path d="M81.858 35.147c1.988 0 3.518 1.49 3.518 3.328v51.438H25.598a4 4 0 0 1-4-4V56.36L44.96 35.147h36.898z" fill="#8BA4FE" mask="url(#f)"/><path d="M9.619 163.916h82.654v-24.54l-4.332-1.006c-3.536-.797-5.2-4.887-3.19-7.937l-68.581-.07a6.546 6.546 0 0 0-6.551 6.551v27.002z" fill="#6663D8" mask="url(#f)"/><path d="M135.185 163.95v-.068c0-3.883-2.219-7.453-5.72-9.186l-27.105-13.345c-2.635-1.282-5.512-1.975-8.423-1.975h-70.64a3.787 3.787 0 0 0-3.779 3.777v20.763l115.667.034z" fill="#9FD4FE" mask="url(#f)"/><path d="M58.824 106.377a1.79 1.79 0 0 0-1.802-1.802H24.994a1.79 1.79 0 0 0-1.802 1.802 1.79 1.79 0 0 0 1.802 1.803h32.028a1.79 1.79 0 0 0 1.802-1.803" fill="#8BA4FE" mask="url(#f)"/><path d="M57.23 106.377a1.79 1.79 0 0 0-1.802-1.802H23.4a1.79 1.79 0 0 0-1.802 1.802 1.79 1.79 0 0 0 1.802 1.803h32.028c.97 0 1.802-.798 1.802-1.803" fill="#6663D8" mask="url(#f)"/><path d="M77.577 121.005h10.64c.902 0 1.63-.729 1.63-1.63v-6.55c0-.902-.728-1.63-1.63-1.63h-10.64c-.902 0-1.63.728-1.63 1.63v6.55c-.034.901.694 1.63 1.63 1.63" fill="#8BA4FE" mask="url(#f)"/><path d="M75.497 121.005h10.641c.901 0 1.629-.729 1.629-1.63v-6.55c0-.902-.728-1.63-1.629-1.63H75.497c-.902 0-1.63.728-1.63 1.63v6.55c0 .901.728 1.63 1.63 1.63" fill="#9FD4FE" mask="url(#f)"/><path d="M60.8 163.916v-2.357a8.227 8.227 0 0 0-4.956-7.556l-32.41-13.9c-3.015-1.282-6.412.936-6.412 4.194v19.619H60.8z" fill="#8BA4FE" mask="url(#f)"/><path d="M91.961 146.273h3.883c.415 0 .588-.589.173-.762l-2.461-1.213c-.07-.035-.104-.035-.173-.035H89.5c-.416 0-.589.589-.173.762l2.461 1.213c.035.035.104.035.173.035M81.944 146.273h3.882c.416 0 .59-.589.173-.762l-2.46-1.213c-.07-.035-.105-.035-.174-.035h-3.882c-.416 0-.59.589-.173.762l2.46 1.213c.036.035.105.035.174.035M71.927 146.273h3.882c.416 0 .589-.589.173-.762l-2.46-1.213c-.07-.035-.105-.035-.174-.035h-3.882c-.416 0-.59.589-.174.762l2.462 1.213c.069.035.104.035.173.035M61.91 146.273h3.882c.416 0 .589-.589.173-.762l-2.461-1.213c-.07-.035-.104-.035-.173-.035h-3.883c-.415 0-.589.589-.173.762l2.461 1.213c.07.035.104.035.173.035M98.582 150.779h3.882c.416 0 .59-.589.173-.762l-2.46-1.213c-.07-.035-.105-.035-.174-.035h-3.882c-.416 0-.59.589-.174.762l2.461 1.213c.035.035.104.035.174.035M88.565 150.779h3.881c.416 0 .59-.589.174-.762l-2.461-1.213c-.07-.035-.104-.035-.173-.035h-3.883c-.416 0-.589.589-.173.762l2.461 1.213c.035.035.104.035.174.035M78.547 150.779h3.882c.416 0 .59-.589.174-.762l-2.461-1.213c-.07-.035-.104-.035-.174-.035h-3.882c-.416 0-.59.589-.173.762l2.46 1.213c.036.035.105.035.174.035M68.53 150.779h3.882c.416 0 .59-.589.173-.762l-2.46-1.213c-.07-.035-.104-.035-.174-.035H66.07c-.416 0-.59.589-.174.762l2.461 1.213c.035.035.105.035.174.035M105.167 155.285h3.883c.415 0 .589-.589.173-.762l-2.46-1.213c-.07-.035-.105-.035-.174-.035h-3.883c-.416 0-.589.589-.173.762l2.461 1.213c.07 0 .104.035.173.035M95.15 155.285h3.882c.416 0 .59-.589.173-.762l-2.46-1.213c-.07-.035-.104-.035-.174-.035H92.69c-.416 0-.59.589-.173.762l2.461 1.213c.069 0 .104.035.173.035M85.133 155.285h3.882c.416 0 .59-.589.173-.762l-2.46-1.213c-.07-.035-.105-.035-.174-.035h-3.847c-.416 0-.59.589-.174.762l2.461 1.213c.035 0 .07.035.139.035M75.116 155.285h3.882c.416 0 .589-.589.173-.762l-2.46-1.213c-.07-.035-.105-.035-.174-.035h-3.882c-.416 0-.59.589-.174.762l2.461 1.213c.07 0 .139.035.174.035" fill="#FFF" mask="url(#f)"/><path d="M35.566 70.329H49.05v36.395H32.308V73.622c-.034-1.837 1.456-3.293 3.258-3.293" fill="#9FD4FE" mask="url(#f)"/><path d="M41.598 118.869h14.315V73.587a3.254 3.254 0 0 0-3.258-3.258H38.339v45.247c-.034 1.837 1.422 3.293 3.259 3.293" fill="#FFF" mask="url(#f)"/><path d="M35.463 70.364l2.911-.035v2.842c0 .035 0-2.807-2.911-2.807" fill="#FFF" mask="url(#f)"/><path d="M52.62 99.826h-.312c0 .104.07.173.139.173.104-.034.139-.069.173-.173zm.693-.242c0-.105-.069-.14-.138-.14-.07 0-.104.035-.174.14h.312zm-1.247.242h-.208v-.242h.242c.035-.174.104-.382.208-.52l.243.173c-.104.104-.139.242-.173.347h.346c.07-.313.208-.451.45-.451.243 0 .417.173.417.45h.138v.243h-.138a.888.888 0 0 1-.174.416l-.242-.138a1.05 1.05 0 0 0 .138-.278h-.346c-.104.347-.243.485-.45.485-.278-.034-.417-.207-.451-.485z" fill="#6863D8" mask="url(#f)"/><path d="M44.544 118.925h13.483a3.254 3.254 0 0 0 3.259-3.258V98.093a.784.784 0 0 0-.798-.797H47.005a2.485 2.485 0 0 0-2.496 2.496v19.133h.035z" fill="#9FD4FE" mask="url(#f)"/><path d="M41.563 118.925h2.946v-3.362c.035 0-.277 3.362-2.946 3.362" fill="#9FD4FE" mask="url(#f)"/></g><path fill="#ECECFF" d="M41 77h7v3h-7zM41 82h7v3h-7zM41 87h7v3h-7zM50 87h2.857v3H50zM50 82h2.857v3H50zM50 77h2.857v3H50z"/></g></svg>